<?xml version="1.0" encoding="UTF-8"?>
<!DOCTYPE svg PUBLIC "-//W3C//DTD SVG 1.1//EN" "http://www.w3.org/Graphics/SVG/1.1/DTD/svg11.dtd">
<!-- Creator: CorelDRAW 2020 (64-Bit) -->
<svg xmlns="http://www.w3.org/2000/svg" xml:space="preserve" width="1925px" height="661px" version="1.1" shape-rendering="geometricPrecision" text-rendering="geometricPrecision" image-rendering="optimizeQuality" fill-rule="evenodd" clip-rule="evenodd"
viewBox="0 0 1925 661.35"
 xmlns:xlink="http://www.w3.org/1999/xlink"
 xmlns:xodm="http://www.corel.com/coreldraw/odm/2003">
 <defs>
   <clipPath id="id0">
    <path d="M962.1 14.11c521.16,0 943.65,141.76 943.65,316.63 0,174.87 -422.49,316.63 -943.65,316.63 -521.17,0 -943.66,-141.76 -943.66,-316.63 0,-174.87 422.49,-316.63 943.66,-316.63z"/>
   </clipPath>
 </defs>
 <g id="Capa_x0020_1">
  <metadata id="CorelCorpID_0Corel-Layer"/>
  <path id="bg-logo" d="M962.1 14.11c521.16,0 943.65,141.76 943.65,316.63 0,174.87 -422.49,316.63 -943.65,316.63 -521.17,0 -943.66,-141.76 -943.66,-316.63 0,-174.87 422.49,-316.63 943.66,-316.63z"/>
  <g clip-path="url(#id0)">
   <g id="_2096965538240">
    <path id="letter-logo" d="M649.55 526.02c-10.48,9.3 -2.02,10.29 -32.52,10.41l-102.22 -1.04c-6.53,-0.81 -14.31,-2.56 -8.01,-9.83 -1.31,-13.11 12.47,-2.75 21.01,-21.44 4.69,-10.26 8.19,-22.63 12.26,-33.87 20.84,-57.57 23.03,-56.26 -0.26,-58.17l-0.92 -7.41c2.87,-6.68 4.91,-6.22 18.17,-6.65 8.14,-0.26 15.86,-0.59 24.03,-0.46 7.99,0.12 15.98,0.12 23.97,0.1 4.62,-0.01 20.16,-0.66 22.91,4.01 1.16,6.31 1.2,10.5 -1.77,15.65 -4.48,7.74 -4.85,2.98 -9.54,7.95 5.75,0.45 5.6,-0.34 10.63,-1.54 2.36,-5.88 5.15,-12.09 4.58,-18.65 -0.61,-7.03 0.26,-3.45 -2.22,-6.83 -6.59,-5.49 -81.42,-3.47 -93.06,-1.08 -7.84,16.64 -9.37,25.38 8.56,30.17 0.9,11.11 -13.18,43.86 -17.7,57.82 -3.39,10.45 -5.55,20.8 -14.91,23.98 -12.78,4.34 -15.29,9.28 -14.71,25.58 12.92,8.37 15.55,6.68 35.33,6.8l87.3 0.06c16.93,0 27.41,3.93 29.09,-15.56zm716.79 -14.45c16.45,3.73 30.93,-26.23 29.17,-44.35 -24.1,-1.39 -31.74,35.14 -29.17,44.35zm-528.36 -5.72c19.22,-0.62 33.11,-22.1 22.11,-43.9 -5.81,1.89 -11.89,12.3 -14.6,17.42 -4.53,8.55 -8.24,15.28 -7.51,26.48zm-132.29 0.59c10.21,-1.36 13.59,-5.1 17.69,-12.17 2.36,-4.06 9.96,-17.68 4.92,-22.42 -9.18,-8.62 -23.13,22.67 -22.61,34.59zm69.17 -15.76c-0.18,-8.15 0.64,-12.85 6.49,-15.12l15.4 13.41c-1.58,6.34 -2.3,6.62 -6.84,9.52l-15.05 -7.81zm63.12 15.17c-0.73,-11.2 2.98,-17.93 7.51,-26.48 2.71,-5.12 8.79,-15.53 14.6,-17.42 11,21.8 -2.89,43.28 -22.11,43.9zm-111.4 11.55c-15.14,2.55 -25.67,18.54 -49.67,7.62 -16.38,-7.47 -16.49,-25.08 -8.62,-43.12 6.03,-13.81 16.47,-26.36 28.86,-32.56 26.38,-13.2 41.65,1.26 48.26,3.93 7.54,-7.72 14.79,-7.97 29.29,-5.58 2.33,11.61 -22.32,47.75 -18.87,66.58 15.3,-0.23 13.84,-15.27 24.16,-13.75 -0.54,7.81 -13.75,21.48 -20.35,24.85 -14.13,7.2 -24.49,2.24 -33.06,-7.97zm61.32 -48.58c-0.84,-16.7 7.29,-25.74 25.76,-21.15 6.85,1.7 10.9,8.04 18,4.68 4.11,-1.95 6.36,-10.2 12.54,-8.53 14.78,3.98 -27.7,41.09 -16.97,64.02 11.88,16.22 31.54,-2.73 36.5,-10.27 12.2,-18.54 1.83,-26.55 3.69,-47.86 7.28,-6.23 20.51,-9.63 24.04,2.33 2.85,9.67 -1.5,23.81 -4.97,31 -25.08,52.04 -82.88,54.32 -89.17,31.1 -6.07,-22.45 18.94,-35.17 24.37,-46.58 -42.04,-4.32 -12.45,2.6 -33.79,1.26zm-249.01 -64.15l80.64 -0.33 0.17 5.89c-11.87,5.55 -21.1,-1.33 -27.75,10.77 -5.68,10.33 -28.61,77.57 -27.67,90.03 12.56,8.52 33.87,6.62 49.3,2.35 19.59,-5.42 20.02,-22.79 32.32,-23.86 0.55,8.03 -1.94,12.84 -3.64,20 -2.3,9.64 -1.72,9.2 -5.85,16.41l-129.61 -0.37c-6.3,7.27 1.48,9.02 8.01,9.83l102.22 1.04c30.5,-0.12 22.04,-1.11 32.52,-10.41 0.42,-1.96 0.99,-4.82 1.64,-6.42 2.06,-5.05 0.4,-2.47 3.5,-5.51 9.5,5.54 7.21,31.33 49.17,24.57 6.17,-1 17.66,-5.05 20.75,-4.8 7.6,0.61 24.57,19.65 53.56,-6.9 4.72,-4.33 7.11,-11.58 11.74,-13.09 8.49,18.34 16.61,30.95 46,26.18 31,-5.04 70.38,-42.75 67.68,-80.25 -1.05,-14.66 -4.22,-19.09 -16.14,-22.15 -13.54,-3.48 -15.49,6 -25.65,8.65 -7.4,-3.98 -6.47,-7.74 -14.56,-9.5 -10.19,-2.21 -11.03,3.21 -16.25,6.25 -10.83,0.07 -12.49,-4.79 -25.63,-3.52 -8.78,0.84 -3.86,1.58 -10.93,3.23 -17.42,4.08 2.6,-7.14 -38.71,-4.55 -15.33,0.96 -12.19,0.74 -26.24,-1.43 -42.46,-6.56 -56.68,27.53 -69.72,48.49 -7.62,-0.93 -11.83,-6.42 -21.6,-0.73 -4.64,2.7 -8.9,10.59 -13.94,15.12 -10.94,9.85 -28.42,11.13 -46.06,9.05 -2.95,-10.4 15.44,-59.43 20.43,-70.89 4.88,-11.24 3.49,-12.63 18.07,-12.55 4.69,-4.97 5.06,-0.21 9.54,-7.95 2.97,-5.15 2.93,-9.34 1.77,-15.65 -2.75,-4.67 -18.29,-4.02 -22.91,-4.01 -7.99,0.02 -15.98,0.02 -23.97,-0.1 -8.17,-0.13 -15.89,0.2 -24.03,0.46 -13.26,0.43 -15.3,-0.03 -18.17,6.65zm409.44 100.41c18.04,-0.85 23.96,-24.7 22.72,-34.62 -15.62,-0.19 -22.79,23.9 -22.72,34.62zm-173.47 -14.4l15.05 7.81c4.54,-2.9 5.26,-3.18 6.84,-9.52l-15.4 -13.41c-5.85,2.27 -6.67,6.97 -6.49,15.12zm591.48 20.89c-2.57,-9.21 5.07,-45.74 29.17,-44.35 1.76,18.12 -12.72,48.08 -29.17,44.35zm28.69 -13.57c0.58,-5.99 4.81,-15.5 7.53,-21.02l-0.22 -21.41c-37.34,-19.31 -58.22,52.61 -43.19,61.58 20.59,9.75 27.02,-12.3 35.88,-19.15zm2.21 22.64c-2.83,3.06 0.21,1.23 -5.26,3.71 -34.38,15.56 -87.68,-8.75 -57.79,-54.22 21.51,-32.72 87.02,-37.38 94.58,-1.71 10.64,17.9 -16.89,50.72 -31.53,52.22zm-195.3 -19.18c-3.69,26.06 -65.84,38.37 -79.36,12.42 -16.31,-31.29 21.11,-64.26 49.54,-69.07 46.33,-7.84 61.01,27.48 3.86,43.41 -4.56,1.28 -22.49,3.3 -25.05,5.79 -5.61,5.45 -1.53,19.2 5.82,21.85 21.61,7.76 32.13,-15.82 45.19,-14.4zm103.35 -0.7c-4.64,34.33 -100.04,43.76 -79.74,-16.04 10.23,-30.16 43.86,-45.67 72.19,-39.76 13.86,2.89 18.87,7.52 17.71,22.12 -9.77,6.97 -11.33,7.09 -25.2,2.68l0.08 -16.29c-35.66,-5.95 -56.93,74.88 -13.38,62.28 14.04,-4.06 15.83,-14.33 28.34,-14.99zm-232.37 14.67c3,-16.34 -13.05,-23.17 -21.36,-33.07 -27.22,-32.4 43.03,-51.17 57.92,-30.46 5.81,8.07 -0.21,15.76 -9.68,15.17 -10.05,-0.62 -9.2,-8.17 -13.01,-14.3 -9.28,-0.62 -7.93,-0.79 -15.58,2.44 -1.54,14.43 11.91,20.73 19.71,28.76 8.87,9.13 12.11,23.93 0.29,34.17 -16.84,14.57 -70.94,16.53 -59.15,-14.73 7.67,-2.76 8.97,-2.61 18.39,-0.55l2.73 15.53c10.52,2.05 13.47,1.32 19.74,-2.96zm-104.99 0.77c-7.19,2.8 -12.42,8.17 -20.83,10.04 -61.3,13.67 -46.81,-56.09 -8.43,-76.65 20.68,-11.08 34.27,-3.6 48.09,2.57 10.59,-7 9.24,-4.82 29.76,-4.71 -1.03,13.84 -24.82,57.09 -19.01,64.84 8.37,9.35 11.68,-9.45 23.36,-11.45 -1.68,9.88 -12.37,21.37 -21.02,25.1 -22.73,9.81 -30.14,-7.55 -31.92,-9.74zm74.35 -23.15c-6.87,0.91 -8.62,4.57 -18.22,-1.37l-6.44 -4.43c1,-15.36 15.11,-33.62 12.02,-43.41 -3.96,-12.56 -35.78,-4.03 -46.18,-5.32 -20.68,-2.54 -33.48,-9.91 -60.73,15.51 -21.25,19.83 -31.06,56.15 -16.46,72.85l16.83 10.69c13.73,5.53 27.07,-0.22 36.43,-3.41 13.93,-4.76 23.62,12.29 47.44,2.38 6.41,-2.66 11.73,-9.88 17.44,-11 4.52,0.68 17.12,23.22 49.95,14.86 19.64,-5.01 27,-12.64 34.02,-25.78 4.22,-7.91 -0.64,-2.92 5.12,-5.39 6.47,26.22 21.81,32.26 49.64,31.2 22.79,-0.87 39.34,-13.93 51.27,-30.72 5.2,3.98 5.64,11.58 13.14,17.64l6.39 4.16c24.96,14.19 55.9,8.59 77.22,-14.14 4.25,-4.53 11.7,-13.53 3.54,-19.17 -0.89,-0.61 -3.13,-1.91 -4.51,-2.55 -17.8,-8.34 -12.93,8.3 -34.87,13.45 -2.39,0.56 -3.39,0.87 -5.91,0.37 -7.74,-1.54 -1.97,0.55 -4.75,-2.54 -6.21,-8.11 8.54,-34.8 14.79,-38.16 6.98,6.06 3.9,10.9 15.27,15.39 14.48,5.71 17.04,-1.07 26.24,-1.02 0.37,8.87 -2.03,21.82 1.35,29.29l18.78 19.44c22.05,13.24 76.47,10.77 96.17,-32.69 12.62,-27.83 -2.09,-61.33 -31.31,-63.71 -18.82,-1.53 -44.12,2.76 -59.16,11.64 -5.08,3.01 -5.88,5.15 -9.19,9.02 -5.15,6.02 -1.49,4.46 -9.14,6.03 -4.77,-12.87 -3.24,-15.79 -15.27,-22.1 -8.38,-4.41 -22.59,-5.16 -34.68,-3.09 -10.28,1.76 -20.47,4.12 -28.48,9.02 -17.26,10.58 -14.36,14.05 -24.83,16.62 -3.93,-13.14 -1.77,-15.91 -15.26,-22.13 -18.66,-8.59 -52.1,-2.31 -62.09,4.34 -6.99,4.65 -13.56,14.15 -22.45,17.41l-3.39 -8.13c-3.45,-10.26 -6.23,-12.56 -15.32,-16.11 -12.37,-4.83 -22.39,-3.73 -36.96,-1.68l-11.88 4.02 -13.33 13.76c-8.61,13.02 -2,24.32 -2.24,38.96zm-93.95 12.03c-0.07,-10.72 7.1,-34.81 22.72,-34.62 1.24,9.92 -4.68,33.77 -22.72,34.62zm-11.84 6.76c33.89,13.05 50.96,-46.95 37.97,-54.89 -17.07,-2.73 -23.56,6.5 -29.67,17.49 -5.6,10.08 -11.37,23.81 -8.3,37.4zm288.71 -49.23c10.47,-2.57 7.57,-6.04 24.83,-16.62 8.01,-4.9 18.2,-7.26 28.48,-9.02 12.09,-2.07 26.3,-1.32 34.68,3.09 12.03,6.31 10.5,9.23 15.27,22.1 7.65,-1.57 3.99,-0.01 9.14,-6.03 3.31,-3.87 4.11,-6.01 9.19,-9.02 15.04,-8.88 40.34,-13.17 59.16,-11.64 29.22,2.38 43.93,35.88 31.31,63.71 -19.7,43.46 -74.12,45.93 -96.17,32.69l-18.78 -19.44c-3.38,-7.47 -0.98,-20.42 -1.35,-29.29 -9.2,-0.05 -11.76,6.73 -26.24,1.02 -11.37,-4.49 -8.29,-9.33 -15.27,-15.39 -6.25,3.36 -21,30.05 -14.79,38.16 2.78,3.09 -2.99,1 4.75,2.54 2.52,0.5 3.52,0.19 5.91,-0.37 21.94,-5.15 17.07,-21.79 34.87,-13.45 1.38,0.64 3.62,1.94 4.51,2.55 8.16,5.64 0.71,14.64 -3.54,19.17 -21.32,22.73 -52.26,28.33 -77.22,14.14l-6.39 -4.16c-7.5,-6.06 -7.94,-13.66 -13.14,-17.64 -11.93,16.79 -28.48,29.85 -51.27,30.72 -27.83,1.06 -43.17,-4.98 -49.64,-31.2 -5.76,2.47 -0.9,-2.52 -5.12,5.39 -7.02,13.14 -14.38,20.77 -34.02,25.78 -32.83,8.36 -45.43,-14.18 -49.95,-14.86 -5.71,1.12 -11.03,8.34 -17.44,11 -23.82,9.91 -33.51,-7.14 -47.44,-2.38 -9.36,3.19 -22.7,8.94 -36.43,3.41l-16.83 -10.69c-14.6,-16.7 -4.79,-53.02 16.46,-72.85 27.25,-25.42 40.05,-18.05 60.73,-15.51 10.4,1.29 42.22,-7.24 46.18,5.32 3.09,9.79 -11.02,28.05 -12.02,43.41l6.44 4.43c9.6,5.94 11.35,2.28 18.22,1.37 0.24,-14.64 -6.37,-25.94 2.24,-38.96l13.33 -13.76 11.88 -4.02c14.57,-2.05 24.59,-3.15 36.96,1.68 9.09,3.55 11.87,5.85 15.32,16.11l3.39 8.13c8.89,-3.26 15.46,-12.76 22.45,-17.41 9.99,-6.65 43.43,-12.93 62.09,-4.34 13.49,6.22 11.33,8.99 15.26,22.13zm-608.54 -37.34c-14.58,-0.08 -13.19,1.31 -18.07,12.55 -4.99,11.46 -23.38,60.49 -20.43,70.89 17.64,2.08 35.12,0.8 46.06,-9.05 5.04,-4.53 9.3,-12.42 13.94,-15.12 9.77,-5.69 13.98,-0.2 21.6,0.73 13.04,-20.96 27.26,-55.05 69.72,-48.49 14.05,2.17 10.91,2.39 26.24,1.43 41.31,-2.59 21.29,8.63 38.71,4.55 7.07,-1.65 2.15,-2.39 10.93,-3.23 13.14,-1.27 14.8,3.59 25.63,3.52 5.22,-3.04 6.06,-8.46 16.25,-6.25 8.09,1.76 7.16,5.52 14.56,9.5 10.16,-2.65 12.11,-12.13 25.65,-8.65 11.92,3.06 15.09,7.49 16.14,22.15 2.7,37.5 -36.68,75.21 -67.68,80.25 -29.39,4.77 -37.51,-7.84 -46,-26.18 -4.63,1.51 -7.02,8.76 -11.74,13.09 -28.99,26.55 -45.96,7.51 -53.56,6.9 -3.09,-0.25 -14.58,3.8 -20.75,4.8 -41.96,6.76 -39.67,-19.03 -49.17,-24.57 -3.1,3.04 -1.44,0.46 -3.5,5.51 -0.65,1.6 -1.22,4.46 -1.64,6.42 -1.68,19.49 -12.16,15.56 -29.09,15.56l-87.3 -0.06c-19.78,-0.12 -22.41,1.57 -35.33,-6.8 -0.58,-16.3 1.93,-21.24 14.71,-25.58 9.36,-3.18 11.52,-13.53 14.91,-23.98 4.52,-13.96 18.6,-46.71 17.7,-57.82 -17.93,-4.79 -16.4,-13.53 -8.56,-30.17 11.64,-2.39 86.47,-4.41 93.06,1.08 2.48,3.38 1.61,-0.2 2.22,6.83 0.57,6.56 -2.22,12.77 -4.58,18.65 -5.03,1.2 -4.88,1.99 -10.63,1.54zm-83.5 12.35c0,5.67 -14.42,41.36 -17.32,49.43 -7.33,20.37 -25.47,8.64 -25.47,43 0,30.55 55.9,19.02 76.96,18.76 15.72,-0.2 59.62,1.34 71.9,-1.71 7.48,-1.85 12.02,-6.78 18.88,-6.78 6.68,0 9.09,11.98 41.09,11.98 10.5,0 14.33,-3.66 22.5,-4.08 8.48,-0.43 11.63,4.08 23.71,4.08 21.09,0 27.72,-10.05 41.08,-17.12 11.69,6.19 15.9,17.12 42.79,17.12 16.77,0 39.25,-11.89 49.18,-21 5.87,-5.38 3.95,-9.26 12.44,-11.52 5.43,8.1 5.18,13.13 15.86,21.8 23.23,18.85 47.68,7.29 59.46,7.29 12.52,0 17.99,4.55 29.56,2.3 11.71,-2.28 17.32,-5.57 25.21,-10.85 14.02,3.26 30.76,22.44 70.2,5.15 9.2,-4.04 11.86,-7.67 18.81,-13.71 7.55,3.99 11.03,8.37 18.24,12.57 42.78,24.9 77.94,-14.28 82.75,-14.28 3.58,0 17.51,12.68 22.27,15.38 23.5,13.38 49.93,9.04 70.19,-6.79 10.43,-8.15 9.97,-13.74 24.17,-1.99 5.13,4.25 4.33,4.28 11.12,7.72 58.06,29.36 128.12,-25.61 110.69,-83.32 -3.55,-11.78 -8.77,-18.91 -17.92,-24.87 -19.86,-12.93 -45.22,-13.9 -68.57,-7.51 -14.5,3.96 -17.76,8.29 -28.71,14.08 -7.71,-4.08 -11.96,-9.52 -19.5,-13.03 -22.56,-10.5 -55.42,-4.47 -71.98,7.14 -5.63,3.94 -5.15,5.98 -11.22,7.6 -10.05,-6.73 -21.64,-22.48 -49.36,-20.37 -11.43,0.87 -31.78,5.77 -40.88,12.29 -6.46,4.62 -5.93,3.24 -12.46,6.37 -12.61,-18.82 -44.19,-22.65 -67.91,-14.84 -12.93,4.25 -13.44,7.92 -21.1,9.71 -11.51,-7.71 -5.42,-12.09 -34.24,-12.01 -6.96,0.02 -16.12,0.78 -19.86,0.56 -22.27,-1.25 -34.44,-8.1 -61.52,10.51 -5.52,3.8 -3.5,4.31 -11.05,6.07 -7.29,-5.35 -6.47,-18.83 -32.52,-18.83 -8.2,0 -12.48,2.63 -17.12,2.63 -4.81,0 -7.64,-2.63 -20.53,-2.63 -8.94,0 -9.42,3.17 -17.16,3.4l-23.93 -1.69c-7.02,0 -8.61,1.6 -14.67,1 -18.83,-1.85 -36.98,0.31 -49.9,-1.46 -34.62,-4.75 -53.16,4.85 -71.64,28.57 -21.9,28.13 -10.4,10.43 -30.78,20.57 -18.44,9.17 -3.91,21.5 -43.54,21.5 0,-8.36 10.77,-43.34 13.81,-51.23 7.26,-18.89 34.12,-0.24 34.12,-42.91 0,-26.17 -45.3,-17.36 -58.25,-17.05 -5.73,0.14 -7.91,-1.04 -12.18,-1.52 -18.31,-2.1 -39.91,-0.46 -45.33,19.28 -5.81,21.1 9.63,29.39 9.63,35.24zm172.53 68.82c-0.52,-11.92 13.43,-43.21 22.61,-34.59 5.04,4.74 -2.56,18.36 -4.92,22.42 -4.1,7.07 -7.48,10.81 -17.69,12.17zm27.56 -49.68c-18.74,-1.39 -24.75,6.98 -31.43,19.43 -3.46,6.47 -14.87,32.2 -3.4,37.49 20.84,9.62 47.4,-35.35 34.83,-56.92zm420.65 27.4c13.59,-0.75 47.14,-16.16 34.84,-29.47 -11.74,-12.71 -33.58,13.36 -34.84,29.47z"/>
    <path id="letter-logo" d="M1350.25 282.98c14.19,-64.56 -34.39,-77.15 -47.38,-17.86 -13.92,63.5 34.34,77.2 47.38,17.86zm281.26 36.66c-0.83,-9.92 -14.47,-16.4 0.42,-24.75 9.3,5.54 2.16,6.77 13.72,8.71 6.42,-4.62 8.08,-11.38 10.09,-22.73 8,-45.11 -12.48,-66.59 -33.21,-46.62 -16.82,16.21 -31.23,90.88 8.98,85.39zm-119.65 -0.66c27.68,2.87 40.42,-7.39 44.96,-40.43 4.94,-35.93 0.75,-53.44 -31.98,-49.74 -4.59,16.44 -13.45,72.58 -12.98,90.17zm-918.51 -90.47c-2.61,6.27 -15.38,84.29 -12.77,88.48 4.09,6.54 43.6,11.82 45.98,-51.61 1.16,-30.92 -4.82,-36.86 -33.21,-36.87zm534.88 78.88c16.37,3.75 14.91,-2.08 16.69,-14.43 1.23,-8.56 3.4,-18.78 4.64,-26.65 2.88,-18.24 6.92,-42.35 6.76,-60.56 -17.11,-0.37 -13.78,2.71 -16.63,19.06l-11.46 82.58zm-358.09 -76.77c-0.97,5.15 -5.7,28.17 -3.59,31.77 4.17,7.1 24.5,3.28 30.48,-0.96 2.62,-1.87 31.83,-40.7 -26.89,-30.81zm126.9 57.92l22.48 -0.04c1.41,-10.41 -1.06,-43.29 -4.92,-49.53 -4,5.21 -18.09,39.15 -17.56,49.57zm-488.56 0.72l19.51 0.29c3.98,-7.55 1.26,-27.83 0.04,-37.75 -1.27,-10.34 -2.79,-9.14 -3.42,-10.01 -4.6,4.22 -19.12,38.26 -16.13,47.47zm-158.22 -0.82c19.53,1.79 22.85,4.1 21.15,-15.14 -0.87,-9.93 -1.18,-23.01 -5.55,-29.46 -5.25,4.11 -17.67,33.8 -15.6,44.6zm608.69 51.96c0.07,-11.59 6.73,-25.17 10.94,-35.38 8.86,-21.49 29.7,-83.51 38.83,-97.64 7.2,-1.18 13.23,-1.78 19.62,1.12 2.9,8.59 13.18,119.51 12.39,131.89l-14.4 -0.65 -3.92 -25.5 -7.79 -2.36c-1.51,-0.25 -7.95,-0.36 -9.79,-0.36 -6.99,0 -13.05,0.14 -20.02,0.75 -10.93,27.13 -5.4,28.78 -25.86,28.13zm-632.13 -0.56l-16.69 1c0.56,-13.21 18.78,-54.94 24.21,-67.7 20.65,-48.56 17.49,-71.71 40.77,-65.91 4.66,1.16 1.59,-0.08 4.18,1.83 2.1,2.3 18.44,124.63 11.93,130.71 -4.07,3.8 -12.69,2.16 -14.79,-4.26 -1.52,-4.65 -1.67,-16.84 -2.68,-23.02 -37.35,-3.95 -36.65,-3.88 -46.93,27.35zm141.82 0.98c-0.51,-5.27 41.48,-117.81 50.31,-133.75 27.71,-2.49 18.76,-4.28 26.37,54.5l6.3 77.83 -15.11 0.82c-3.01,-28.77 5.84,-30.53 -38.63,-28.81 -12.63,15.33 -2.59,32.69 -29.24,29.41zm209.29 -133.6c36.69,-3.28 63.46,-1.15 66.24,42.34 2.15,33.5 -4.06,69.44 -26.07,83.85 -14.12,9.25 -26.73,8.16 -46.69,8.06 -16.82,-0.1 -13.78,-2.16 -8.08,-39.63 3.84,-25.3 7.98,-70.88 14.6,-94.62zm912.68 133.12c-0.16,-14.85 15.45,-123.5 20.24,-133.03 22.6,-2.49 46.21,-3.11 55.85,13.38 17.02,29.11 12.51,81.96 -13.03,109.52 -12.16,13.13 -41.56,11.73 -63.06,10.13zm166.8 16.34c-5.16,-1.96 -9.66,-10.5 -13.72,-15.32 -13.54,-0.3 -56.79,15.82 -55.42,-56.43 0.58,-30.81 12.43,-71.02 38.25,-78.32 41.24,-11.68 51.73,32.04 48.42,66.37 -1.7,17.69 -4.98,32.12 -13.55,45.44 -8.28,12.88 -4.08,9.49 1.66,19.74 4.35,7.75 -0.37,14.86 -5.64,18.52zm-288.19 -77.62c-2.46,14.67 -4.69,30.88 -13.82,43.12 -29.06,38.98 -82.54,26.95 -71.14,-53.77 13.24,-93.75 100.17,-80.18 84.96,10.65zm-632.01 61.77c-1.5,-9.92 15.88,-126.26 18.84,-133.88 41.58,-1.1 65.66,-6.04 68.32,30.97 2.65,36.96 -21.28,42.61 -25.66,47.02 1.53,15.29 18.16,39.94 14.87,56.15l-16.01 -0.13c-8.77,-16.79 -6.73,-35.6 -19.74,-54.55l-14.15 0.43c-8.75,12.94 -6.42,37.99 -11.34,53.73l-15.13 0.26zm-538.19 -51.5c-1.31,2.58 -4.81,4.24 -12.79,5.09l10.69 -65.28c-0.26,-3.29 -0.31,-6.82 -0.33,-8.83l-0.37 -7.46c-0.61,-3.19 -0.64,-6.53 -0.65,-9.29l-7.81 -13.72c-17.01,-3.28 -20.49,-14.09 -50.84,4.93l-8.26 58.68c-2.56,9.86 -5.6,12.11 -7.53,22.03 -2.09,10.68 -3.22,16.15 -3.57,27.13 -0.69,21.67 -6.01,31.74 0.13,53.89 16.12,12.19 88.57,6.15 114.46,6.53 7.73,-0.93 9.48,-4.02 12.95,-8.95 1.93,-5.4 3.39,-11.66 8.68,-13.91 8.4,19.53 9.5,22.79 35.6,21.94 11.95,-0.39 13.81,-3.72 27.05,-1.4 11.72,2.06 19.17,0.77 30.49,1.8 59.49,4.43 49.96,-1.69 65.52,-22.18 6.71,15.8 2.12,22.96 23.94,24.25 9.78,0.58 42.22,1.17 50.76,-0.23 11.43,-1.87 6.13,-8.11 18.8,-4.64 25.23,6.91 41.72,3.81 73.51,3.92 41.42,0.13 26.45,-2.39 44.25,-6.93 9.15,-2.34 10.85,3.03 17.34,5.78 10.62,4.5 111.39,2.9 124.6,1.32 3.21,-4.79 3.37,-7.6 7.84,-11.46 11.82,3 7.57,12.12 25.34,12.81 13.22,0.52 27.88,-0.18 41.3,-0.16 31.72,0.05 50.29,5.77 58.06,-22.24 8.37,6.19 8.87,28.86 49.71,20.69 9.94,-1.98 6.86,-5.16 15.71,-8.66 12.12,4.1 7.21,9.01 27.36,9.16l74.62 0.2c18.32,0.11 16.93,-3.52 27.37,-10.23 5.88,1.01 12.03,6.71 18.05,8.88 27.07,9.79 43.81,-1.96 51.1,-3.42 7.84,-1.57 29.97,10.81 50.24,1.68 22.24,-10.02 9.27,9.18 49.11,2.22 11.94,-2.09 9.03,-7.8 17.7,-11.9 10.34,3.54 13.44,10.42 29.1,14.1 19.59,4.6 24.71,-2.96 36.82,-3.35 8.14,-11.18 13.99,-1.06 24.34,0.81 4.72,0.85 77.31,2.66 85.62,-2.33 1.55,-0.93 3,-2.59 4.01,-3.49l6.3 -5.17c9.23,2.53 1.51,-0.36 8.36,5 17.57,13.77 59.14,5.67 77.87,2.51l25.49 -17.4c7.47,4.85 12.03,12.45 22.32,18.62 12.6,7.55 26,3.15 35.35,7.61 7.31,3.48 9.19,15.98 28.35,13.13 13.38,-1.99 17.58,-13.69 21.29,-22.5 13.03,1.29 49.64,21.95 77.84,-12.28 27.18,-33.01 10.05,-65.75 9.67,-81.29 7.91,-7.06 6.66,-3.83 11.53,-14.44l0.47 -5.04c1.83,-16.32 -2.47,-21.77 -4.99,-29.66 -2.48,-2.66 -4.43,-5.57 -5.42,-9.08 -1.84,-2.3 -3.05,-4.56 -3.85,-6.8l-6.4 -9.05c-4.13,-1.53 -8.28,-4.34 -11.47,-7.46l-0.76 -0.37c-1.6,-0.24 -3.18,-0.71 -4.68,-1.35 -4.23,-0.15 -8.51,-1.42 -11.35,-2.08l-19.72 1.68c-0.76,0.43 -1.88,0.95 -3.62,1.59l-8.44 3.8c-3.23,3.16 -7.87,6.59 -14.66,10.32 -8.24,7.39 -12.55,-3.21 -22.82,-9.12 -41.69,-24.01 -72.49,15.23 -80.8,17.62 -21.32,-23.56 -33.34,-25.95 -76.58,-22.72 -36.64,2.73 -18.21,53.86 -30.12,69.69l-8.09 54.56c-7.4,-3.05 -5.47,-5.51 -10.76,-8.48 -4.42,-2.49 -10.7,-2.49 -16.09,-3.49 1.45,-17.45 26.69,-44.04 32.58,-65.84 4.06,-50.54 4.89,-47.14 -81.13,-46.59 -26.67,0.17 -20.94,16.48 -31.3,5.5 -17.03,-4.46 -17.11,-9.84 -40.93,-7.05 -11.95,1.41 -25.03,14.23 -34.68,4.88 -4.74,-4.88 -2.27,-0.76 -2.39,-9.1 -0.1,-7.13 2.4,-15.42 -7.04,-22.83 -7.88,-6.19 -53.49,-9.1 -65.96,2.99 -8.76,8.48 -8.79,15.95 -13.66,25.29 -8.64,0.56 -16.95,0.13 -25.56,0.32 -15.17,0.34 -9.85,2.55 -18.53,5.23 -10.4,3.22 -7.86,-1.93 -17.45,-4.23l-71.78 -0.93c-8.24,0.28 -13.7,3.05 -21.1,2.16 -8.05,-0.97 -11.27,-2.51 -21.91,-2.57 -45.93,-0.25 -37.97,10.31 -44.77,51.78 -2.94,18 -8.3,69.08 -13.28,81.15 -5.23,-11.4 -10.02,-86.49 -12.43,-108.95 -1.73,-16.17 -4.41,-15.79 -13.47,-22.15l-14.72 -6.22c-4.74,0.02 -9.03,-0.09 -13.35,-2.4 -4.9,0.45 -9.98,-1.85 -12.37,-7.54 -2.25,-2.19 -4.05,-5.04 -5.45,-8.35l-3.52 -5.65c-0.51,-0.93 -1.1,-1.71 -1.74,-2.39 -1.87,-0.66 -3.6,-1.25 -4.44,-1.67l-10.06 -3.01 -24.77 -0.37c-0.56,0.23 -1.12,0.44 -1.67,0.61 -11.91,8.98 -9,8.45 -23.9,38.53 -12.3,0.53 -29.08,-2.85 -45.08,-2.77l-96.05 -0.47c-29.17,-0.52 -19.18,3.41 -35.26,12.25 -9.91,-2.58 -13.64,-9.23 -26.06,-10.99l-73.98 -1.06c-8.1,0.17 -10.89,0.63 -16.87,3.19 -2.7,1.15 -9.47,6.41 -11.36,0.86 -46.22,-14.06 -44.56,4.31 -55.97,9.24 -7.4,-6.88 -6.42,-12.6 -21.44,-13.55 -11.5,-0.73 -23.94,0.99 -35.39,0.92 -10.14,-0.07 -25.62,-2.28 -35.06,-0.41 -12.68,2.52 -10.66,9.69 -19.82,15.81 -13.16,-7.09 -1.34,-17.34 -37.22,-15.82 -11.79,0.5 -19.98,1.41 -26.7,0.95 -3.81,0.72 -8.05,0.51 -11.87,0.12l-17.32 -0.38 -12.81 8.12c-0.81,1.11 -1.64,2.18 -2.44,3.2 -0.57,2.75 -1.72,4.6 -3.04,6.45 -0.61,2.29 -1.66,4.73 -3.22,7.3 -6.61,10.87 -4.77,14.16 -7.95,19.67 -0.46,0.81 -0.89,1.58 -1.34,2.32l-0.89 2.19c-0.3,1.5 -0.68,2.82 -1.02,3.75 -1.08,2.95 -1.98,5.73 -3.21,7.73l-1.11 3.84c-0.94,2.24 -2.07,5.75 -3.97,7.93 -1,2.26 -1.99,4.54 -3.13,6.73 0.05,1.28 -0.38,2.63 -1.5,3.91l-1.43 3.15c-1.1,3.22 -2.13,6.27 -3.75,8.09l-3.39 6.91c-1.2,2.12 -2.52,3.41 -3.81,4.09zm872.5 50.38l-14.12 0.76c0.08,-14.84 4.14,-28.49 6.15,-43.19 2.17,-15.87 3.94,-29.65 4.05,-45.82 -4.76,3.85 -5.05,8.2 -9.16,20.23 -2.18,6.38 -5.27,16.09 -7.06,21.86 -4.65,15.02 -8.04,34.3 -14.87,46.29 -18.38,1.72 -16.44,7.77 -17.25,-43.15 -0.3,-18.61 -0.39,-37.47 -1.69,-56.18 -9.35,25.55 -8.96,70.46 -16.46,99.36l-14.35 0.79 18.27 -133.16 26.44 -0.4c1.15,11.46 1.38,26.61 1.61,38.58l0.45 29.57c0.18,2.22 0.24,3.39 0.76,5.57 1.28,5.36 0.33,2.31 1.82,4.86 9.02,-8.24 18.67,-57.19 28.35,-78.17l24.19 -0.74c1.25,12.84 -13.82,122.8 -17.13,132.94zm-226.68 -0.96l-16.9 2.22 17.79 -132.99 16.96 -1.05c1.91,14.72 -6.41,48.91 -8.11,64.27 -2.23,20.21 -5.81,46.38 -9.74,67.55zm839.78 -40.21l13.94 -0.82c5.54,9.85 1.96,21.65 17.72,22.94 13.28,1.09 22.32,-6.22 20.25,-19.95 -2.57,-17.17 -32.41,-18.9 -39.37,-42.03 -7.51,-24.96 3.1,-50.88 25.18,-53.73 23.36,-3.01 43.74,18 37.66,39.37l-14.37 0.96c-5.96,-11.07 -3.66,-21.2 -21.46,-19.06 -12.97,1.57 -14.51,16.56 -7.56,25.06 13.1,16.03 35.69,14.79 38.34,43.7 5.67,61.99 -75.77,67.19 -70.33,3.56zm-1148.29 40.92l-14.53 1.17c-7.49,-15.55 -18.3,-74.11 -24.67,-82.88 -10.01,15.42 -6.89,64.92 -15.68,81.47l-13.82 1.24c-0.34,-15.91 10.82,-87.36 14.38,-110.43 2.71,-17.5 -1.32,-25.66 19.04,-22.78 4.4,2.58 15.57,54.64 19.56,66.02 2.66,7.59 0.44,5.36 5.92,8.37 6.61,-5.43 6.94,-27.02 8.31,-35.9 1.46,-9.55 3.36,-31.56 6.33,-38.21l14.47 -0.66c1.47,7.87 -16.1,127.37 -19.31,132.59zm680.1 -78.33c-12.17,11.11 -6.09,63.21 -17.64,78.87l-12.31 0.51c-0.53,-12.78 14.19,-120.44 18.18,-132.01 5.92,-2.31 9.95,-1.58 16.75,-0.79 4.64,15.83 17.46,74.59 24.09,80.76 6.27,-12 10.07,-52.5 12.09,-70.33 1.44,-12.76 2.45,-12.49 16.73,-10.59 1.33,8.67 -14.56,127.58 -19.12,131.9 -2.55,2.4 -10.38,2.71 -13.76,0.73 -4.52,-2.66 -6.82,-19.96 -8.68,-26.87 -2.17,-8.09 -11.65,-46.61 -16.33,-52.18zm-1056.44 56.96l43.6 1.44c1.62,6.62 -0.01,15.7 -2.85,19.86 -7.26,4.78 -51.9,2.62 -61.97,0.17 0.25,-15.67 14.37,-121.65 17.98,-132.28l16.88 -0.44c2.42,32.61 -15.6,78.11 -13.64,111.25zm1242.01 0.66l43.58 1 -2.58 20.35c-16.14,1 -54.9,3.73 -66.46,-1.56 -0.23,-0.5 -0.47,-1.86 -0.52,-1.59 -0.05,0.27 -0.4,-1.2 -0.45,-1.6l1.32 -13.28c3.16,-10.83 43.32,-73.51 46.3,-81.5l0.53 -10.19 -35.11 -1.55 0.56 -21.16 65.1 -0.77c3.63,32.93 -54.01,94.3 -52.27,111.85zm-273.77 -11.36l11.46 -82.58c2.85,-16.35 -0.48,-19.43 16.63,-19.06 0.16,18.21 -3.88,42.32 -6.76,60.56 -1.24,7.87 -3.41,18.09 -4.64,26.65 -1.78,12.35 -0.32,18.18 -16.69,14.43zm-396.04 -78.33l-46.91 0.82c-2.9,5.95 -6.17,24.28 -2.03,27.93 9.4,8.31 44.36,-10.35 42.52,12.79 -0.27,3.41 -1.58,7.32 -3.24,10.21 -14.87,2.08 -35.06,-2.52 -47.04,3.09 -1.63,4.55 -1.56,10.99 -2.4,16.19 -0.76,4.64 -2.38,8.26 -1.04,13.69 2.92,11.77 28.39,4.34 50.88,6.2 0.06,8.01 -0.8,14.16 -4.33,19.81 -10.92,1.57 -22.26,0.81 -33.31,0.72 -5.25,-0.04 -10.48,-0.12 -15.72,-0.1 -24.73,0.12 -20.26,2.65 -9.79,-67.23 2.38,-15.88 5.55,-51.47 9.83,-65.52 10.54,-1.92 54.91,-1.84 65.61,-0.04l-3.03 21.44zm-408.95 110.36c-3.42,-22.33 -16.5,-116.42 -14.09,-132.46l15.97 0.56c5.3,21.59 4.96,77.49 11.3,92.43 7.79,-0.95 6.12,-6.66 13.02,-23.44l20.46 -53.85c4.94,-14.7 2.72,-17.18 21.17,-15.58 0.31,10.61 -21.81,59.64 -26.03,72.79 -4.63,14.43 -9.15,25.02 -13.81,37.17 -6.83,17.8 -3.98,26.36 -27.99,22.38zm847.1 -131.85l15.62 -0.34c0.89,12.67 -9.95,98.84 -21.74,117.64 -20.76,33.12 -74.66,24.05 -64.46,-37.17 4.04,-24.2 7.16,-56.99 13.49,-80.33l16.45 -0.37c3.68,37.52 -35.37,117.64 6.24,113.41 29.71,-3.03 21.56,-69.6 34.4,-112.84zm52.95 -13.98c-1.94,-9.44 2.25,-14.78 6.95,-19.91 11.27,-0.21 8.69,2.25 16,3.47 11.08,1.85 4.75,-2.02 15.28,-3.67 3.38,29 -21.81,15.77 -24,15.52 -11.39,-1.28 -4.13,4.53 -14.23,4.59zm-376.23 -0.04c-0.93,-7.3 7.33,-20.78 10.91,-26.22l13.38 0.39c-0.31,4.52 -9.78,27.39 -24.29,25.83z"/>
   </g>
  </g>
  <path fill="none" id="border-logo" stroke-width="33.33" stroke-miterlimit="22.9256" d="M962.1 14.11c521.16,0 943.65,141.76 943.65,316.63 0,174.87 -422.49,316.63 -943.65,316.63 -521.17,0 -943.66,-141.76 -943.66,-316.63 0,-174.87 422.49,-316.63 943.66,-316.63z"/>
 </g>
</svg>
