<?xml version="1.0" encoding="UTF-8"?>
<!DOCTYPE svg PUBLIC "-//W3C//DTD SVG 1.1//EN" "http://www.w3.org/Graphics/SVG/1.1/DTD/svg11.dtd">
<!-- Creator: CorelDRAW 2020 (64-Bit) -->
<svg xmlns="http://www.w3.org/2000/svg" xml:space="preserve" width="1925px" height="661px" version="1.1" shape-rendering="geometricPrecision" text-rendering="geometricPrecision" image-rendering="optimizeQuality" fill-rule="evenodd" clip-rule="evenodd"
viewBox="0 0 1925 661.35"
 xmlns:xlink="http://www.w3.org/1999/xlink"
 xmlns:xodm="http://www.corel.com/coreldraw/odm/2003">
 <defs>
   <clipPath id="id0">
    <path d="M962.1 14.11c521.16,0 943.65,141.76 943.65,316.63 0,174.87 -422.49,316.63 -943.65,316.63 -521.17,0 -943.66,-141.76 -943.66,-316.63 0,-174.87 422.49,-316.63 943.66,-316.63z"/>
   </clipPath>
 </defs>
 <g id="Capa_x0020_1">
  <metadata id="CorelCorpID_0Corel-Layer"/>
  <path id="logoMuñozDQS" d="M962.1 14.11c521.16,0 943.65,141.76 943.65,316.63 0,174.87 -422.49,316.63 -943.65,316.63 -521.17,0 -943.66,-141.76 -943.66,-316.63 0,-174.87 422.49,-316.63 943.66,-316.63z"/>
  <g clip-path="url(#id0)">
   <g id="_2286529776320">
    <path id="1" fill="#FEFEFE" d="M700.88 536.09c-8.85,7.85 -1.71,8.69 -27.46,8.79l-86.34 -0.88c-5.51,-0.68 -12.09,-2.16 -6.77,-8.3 -1.1,-11.07 10.53,-2.33 17.75,-18.11 3.96,-8.66 6.92,-19.12 10.35,-28.61 17.6,-48.62 19.45,-47.51 -0.22,-49.13l-0.78 -6.25c2.43,-5.64 4.15,-5.25 15.35,-5.62 6.88,-0.22 13.4,-0.5 20.3,-0.39 6.75,0.1 13.5,0.1 20.25,0.09 3.9,-0.01 17.02,-0.57 19.35,3.38 0.98,5.33 1.01,8.87 -1.51,13.22 -3.78,6.54 -4.09,2.52 -8.05,6.71 4.86,0.39 4.73,-0.28 8.97,-1.3 2,-4.97 4.36,-10.21 3.88,-15.75 -0.52,-5.94 0.21,-2.92 -1.87,-5.77 -5.58,-4.64 -68.78,-2.92 -78.61,-0.91 -6.62,14.06 -7.91,21.44 7.24,25.48 0.75,9.38 -11.14,37.05 -14.96,48.84 -2.86,8.83 -4.68,17.56 -12.59,20.25 -10.8,3.67 -12.92,7.84 -12.42,21.6 10.91,7.07 13.13,5.65 29.84,5.75l73.73 0.05c14.3,0 23.15,3.32 24.57,-13.14zm605.41 -12.21c13.88,3.15 26.12,-22.15 24.63,-37.46 -20.35,-1.17 -26.81,29.68 -24.63,37.46zm-446.26 -4.83c16.23,-0.52 27.97,-18.66 18.67,-37.07 -4.9,1.59 -10.04,10.38 -12.33,14.7 -3.83,7.23 -6.96,12.91 -6.34,22.37zm-111.74 0.5c8.63,-1.15 11.48,-4.31 14.95,-10.28 1.99,-3.43 8.41,-14.93 4.15,-18.93 -7.75,-7.29 -19.53,19.14 -19.1,29.21zm58.42 -13.31c-0.14,-6.88 0.55,-10.85 5.49,-12.77l13 11.32c-1.33,5.36 -1.94,5.6 -5.77,8.05l-12.72 -6.6zm53.32 12.81c-0.62,-9.46 2.51,-15.14 6.34,-22.37 2.29,-4.32 7.43,-13.11 12.33,-14.7 9.3,18.41 -2.44,36.55 -18.67,37.07zm-94.09 9.75c-12.79,2.16 -21.68,15.67 -41.95,6.44 -13.84,-6.3 -13.92,-21.18 -7.28,-36.42 5.09,-11.66 13.91,-22.26 24.37,-27.5 22.28,-11.15 35.18,1.07 40.76,3.32 6.37,-6.52 12.5,-6.73 24.75,-4.71 1.96,9.8 -18.86,40.33 -15.94,56.23 12.92,-0.19 11.68,-12.89 20.4,-11.61 -0.46,6.6 -11.61,18.15 -17.19,20.99 -11.93,6.08 -20.68,1.89 -27.92,-6.74zm51.79 -41.03c-0.71,-14.09 6.16,-21.73 21.76,-17.85 5.78,1.43 9.21,6.78 15.2,3.94 3.47,-1.64 5.37,-8.61 10.59,-7.2 12.49,3.36 -23.4,34.71 -14.33,54.07 10.03,13.71 26.64,-2.31 30.83,-8.67 10.3,-15.66 1.54,-22.42 3.11,-40.42 6.15,-5.27 17.33,-8.14 20.31,1.97 2.4,8.16 -1.27,20.1 -4.2,26.17 -21.19,43.96 -70,45.89 -75.31,26.27 -5.13,-18.96 15.99,-29.7 20.58,-39.34 -35.51,-3.65 -10.51,2.2 -28.54,1.06zm-210.32 -54.17l68.11 -0.28 0.15 4.97c-10.02,4.69 -17.82,-1.12 -23.44,9.1 -4.8,8.72 -24.16,65.51 -23.37,76.03 10.61,7.21 28.6,5.6 41.64,1.99 16.54,-4.57 16.91,-19.25 27.3,-20.15 0.46,6.78 -1.64,10.84 -3.08,16.89 -1.94,8.14 -1.45,7.78 -4.94,13.86l-109.47 -0.31c-5.32,6.14 1.26,7.62 6.77,8.3l86.34 0.88c25.75,-0.1 18.61,-0.94 27.46,-8.79 0.36,-1.66 0.83,-4.07 1.39,-5.43 1.73,-4.26 0.33,-2.08 2.95,-4.65 8.02,4.68 6.09,26.46 41.53,20.75 5.21,-0.84 14.91,-4.27 17.52,-4.05 6.42,0.52 20.76,16.6 45.24,-5.83 3.99,-3.65 6.01,-9.78 9.92,-11.06 7.17,15.5 14.03,26.15 38.85,22.11 26.18,-4.25 59.44,-36.1 57.16,-67.77 -0.89,-12.38 -3.56,-16.12 -13.63,-18.71 -11.43,-2.94 -13.08,5.07 -21.66,7.31 -6.25,-3.36 -5.46,-6.55 -12.3,-8.03 -8.6,-1.86 -9.32,2.71 -13.72,5.28 -9.15,0.06 -10.55,-4.04 -21.65,-2.97 -7.42,0.71 -3.27,1.33 -9.24,2.73 -14.71,3.44 2.2,-6.04 -32.69,-3.85 -12.95,0.81 -10.3,0.63 -22.16,-1.2 -35.86,-5.54 -47.87,23.25 -58.88,40.95 -6.44,-0.78 -10,-5.42 -18.25,-0.62 -3.92,2.29 -7.51,8.94 -11.77,12.78 -9.25,8.31 -24.01,9.39 -38.91,7.64 -2.49,-8.78 13.04,-50.19 17.26,-59.88 4.12,-9.49 2.94,-10.67 15.26,-10.6 3.96,-4.19 4.27,-0.17 8.05,-6.71 2.52,-4.35 2.49,-7.89 1.51,-13.22 -2.33,-3.95 -15.45,-3.39 -19.35,-3.38 -6.75,0.01 -13.5,0.01 -20.25,-0.09 -6.9,-0.11 -13.42,0.17 -20.3,0.39 -11.2,0.37 -12.92,-0.02 -15.35,5.62zm345.82 84.8c15.24,-0.72 20.24,-20.86 19.19,-29.24 -13.19,-0.16 -19.25,20.18 -19.19,29.24zm-146.52 -12.16l12.72 6.6c3.83,-2.45 4.44,-2.69 5.77,-8.05l-13 -11.32c-4.94,1.92 -5.63,5.89 -5.49,12.77zm499.58 17.64c-2.18,-7.78 4.28,-38.63 24.63,-37.46 1.49,15.31 -10.75,40.61 -24.63,37.46zm24.22 -11.46c0.5,-5.05 4.07,-13.09 6.36,-17.76l-0.18 -18.07c-31.54,-16.32 -49.17,44.43 -36.48,52 17.39,8.24 22.82,-10.38 30.3,-16.17zm1.87 19.12c-2.39,2.59 0.18,1.04 -4.44,3.13 -29.04,13.15 -74.06,-7.38 -48.81,-45.79 18.17,-27.63 73.5,-31.56 79.88,-1.44 8.99,15.12 -14.27,42.84 -26.63,44.1zm-164.95 -16.2c-3.12,22.02 -55.6,32.41 -67.03,10.49 -13.77,-26.42 17.83,-54.27 41.85,-58.33 39.12,-6.62 51.52,23.2 3.26,36.66 -3.86,1.08 -19,2.78 -21.17,4.89 -4.73,4.61 -1.28,16.22 4.93,18.45 18.25,6.56 27.13,-13.36 38.16,-12.16zm87.29 -0.59c-3.92,29 -84.49,36.96 -67.35,-13.55 8.64,-25.47 37.05,-38.56 60.98,-33.57 11.7,2.43 15.93,6.35 14.95,18.68 -8.25,5.88 -9.57,5.98 -21.28,2.26l0.06 -13.76c-30.12,-5.02 -48.08,63.25 -11.3,52.61 11.86,-3.43 13.37,-12.11 23.94,-12.67zm-196.26 12.4c2.54,-13.81 -11.02,-19.58 -18.04,-27.94 -22.99,-27.36 36.34,-43.22 48.92,-25.73 4.9,6.82 -0.18,13.32 -8.18,12.82 -8.49,-0.53 -7.76,-6.9 -10.99,-12.08 -7.84,-0.53 -6.69,-0.67 -13.15,2.06 -1.3,12.19 10.06,17.51 16.64,24.29 7.5,7.72 10.23,20.21 0.25,28.86 -14.23,12.31 -59.92,13.96 -49.96,-12.44 6.48,-2.33 7.57,-2.21 15.53,-0.46l2.3 13.11c8.89,1.74 11.38,1.12 16.68,-2.49zm-88.68 0.64c-6.07,2.37 -10.48,6.9 -17.59,8.49 -51.77,11.54 -39.53,-47.38 -7.12,-64.75 17.47,-9.36 28.94,-3.03 40.62,2.18 8.94,-5.92 7.8,-4.08 25.13,-3.98 -0.87,11.69 -20.96,48.22 -16.05,54.76 7.07,7.9 9.86,-7.98 19.72,-9.67 -1.41,8.35 -10.44,18.05 -17.74,21.2 -19.2,8.29 -25.46,-6.38 -26.97,-8.23zm62.8 -19.55c-5.81,0.77 -7.28,3.86 -15.39,-1.16l-5.44 -3.73c0.85,-12.98 12.76,-28.4 10.16,-36.67 -3.35,-10.61 -30.22,-3.41 -39.01,-4.49 -17.46,-2.15 -28.28,-8.38 -51.29,13.1 -17.95,16.75 -26.24,47.42 -13.9,61.52l14.21 9.03c11.6,4.67 22.86,-0.18 30.77,-2.88 11.77,-4.01 19.95,10.38 40.06,2.02 5.42,-2.26 9.92,-8.35 14.74,-9.3 3.82,0.58 14.46,19.61 42.18,12.55 16.59,-4.22 22.81,-10.67 28.74,-21.77 3.56,-6.68 -0.54,-2.47 4.33,-4.55 5.46,22.15 18.42,27.24 41.92,26.34 19.25,-0.73 33.23,-11.76 43.3,-25.94 4.39,3.36 4.77,9.79 11.1,14.9l5.4 3.51c21.08,11.99 47.21,7.26 65.22,-11.94 3.59,-3.82 9.88,-11.42 2.98,-16.19 -0.75,-0.52 -2.64,-1.61 -3.8,-2.15 -15.03,-7.05 -10.93,7.01 -29.45,11.35 -2.02,0.48 -2.87,0.74 -4.99,0.32 -6.54,-1.3 -1.67,0.46 -4.01,-2.15 -5.25,-6.84 7.21,-29.39 12.49,-32.23 5.89,5.12 3.29,9.21 12.89,13 12.24,4.82 14.39,-0.9 22.16,-0.86 0.32,7.5 -1.71,18.43 1.14,24.74l15.87 16.42c18.62,11.18 64.59,9.09 81.23,-27.61 10.65,-23.51 -1.78,-51.8 -26.45,-53.81 -15.9,-1.29 -37.26,2.33 -49.97,9.83 -4.29,2.54 -4.96,4.35 -7.76,7.62 -4.35,5.08 -1.26,3.77 -7.72,5.09 -4.03,-10.87 -2.74,-13.33 -12.9,-18.67 -7.08,-3.72 -19.08,-4.35 -29.29,-2.6 -8.68,1.48 -17.29,3.47 -24.05,7.62 -14.58,8.93 -12.13,11.86 -20.97,14.03 -3.32,-11.1 -1.5,-13.44 -12.89,-18.69 -15.76,-7.25 -44,-1.95 -52.44,3.67 -5.9,3.92 -11.46,11.95 -18.96,14.7l-2.87 -6.86c-2.92,-8.68 -5.26,-10.61 -12.94,-13.61 -10.44,-4.08 -18.91,-3.15 -31.21,-1.42l-10.04 3.39 -11.26 11.63c-7.27,10.99 -1.68,20.53 -1.89,32.9zm-79.35 10.16c-0.06,-9.06 6,-29.4 19.19,-29.24 1.05,8.38 -3.95,28.52 -19.19,29.24zm-10 5.71c28.63,11.02 43.04,-39.65 32.07,-46.35 -14.41,-2.31 -19.9,5.48 -25.06,14.76 -4.73,8.51 -9.6,20.11 -7.01,31.59zm243.85 -41.58c8.84,-2.17 6.39,-5.1 20.97,-14.03 6.76,-4.15 15.37,-6.14 24.05,-7.62 10.21,-1.75 22.21,-1.12 29.29,2.6 10.16,5.34 8.87,7.8 12.9,18.67 6.46,-1.32 3.37,-0.01 7.72,-5.09 2.8,-3.27 3.47,-5.08 7.76,-7.62 12.71,-7.5 34.07,-11.12 49.97,-9.83 24.67,2.01 37.1,30.3 26.45,53.81 -16.64,36.7 -62.61,38.79 -81.23,27.61l-15.87 -16.42c-2.85,-6.31 -0.82,-17.24 -1.14,-24.74 -7.77,-0.04 -9.92,5.68 -22.16,0.86 -9.6,-3.79 -7,-7.88 -12.89,-13 -5.28,2.84 -17.74,25.39 -12.49,32.23 2.34,2.61 -2.53,0.85 4.01,2.15 2.12,0.42 2.97,0.16 4.99,-0.32 18.52,-4.34 14.42,-18.4 29.45,-11.35 1.16,0.54 3.05,1.63 3.8,2.15 6.9,4.77 0.61,12.37 -2.98,16.19 -18.01,19.2 -44.14,23.93 -65.22,11.94l-5.4 -3.51c-6.33,-5.11 -6.71,-11.54 -11.1,-14.9 -10.07,14.18 -24.05,25.21 -43.3,25.94 -23.5,0.9 -36.46,-4.19 -41.92,-26.34 -4.87,2.08 -0.77,-2.13 -4.33,4.55 -5.93,11.1 -12.15,17.55 -28.74,21.77 -27.72,7.06 -38.36,-11.97 -42.18,-12.55 -4.82,0.95 -9.32,7.04 -14.74,9.3 -20.11,8.36 -28.29,-6.03 -40.06,-2.02 -7.91,2.7 -19.17,7.55 -30.77,2.88l-14.21 -9.03c-12.34,-14.1 -4.05,-44.77 13.9,-61.52 23.01,-21.48 33.83,-15.25 51.29,-13.1 8.79,1.08 35.66,-6.12 39.01,4.49 2.6,8.27 -9.31,23.69 -10.16,36.67l5.44 3.73c8.11,5.02 9.58,1.93 15.39,1.16 0.21,-12.37 -5.38,-21.91 1.89,-32.9l11.26 -11.63 10.04 -3.39c12.3,-1.73 20.77,-2.66 31.21,1.42 7.68,3 10.02,4.93 12.94,13.61l2.87 6.86c7.5,-2.75 13.06,-10.78 18.96,-14.7 8.44,-5.62 36.68,-10.92 52.44,-3.67 11.39,5.25 9.57,7.59 12.89,18.69zm-513.98 -31.54c-12.32,-0.07 -11.14,1.11 -15.26,10.6 -4.22,9.69 -19.75,51.1 -17.26,59.88 14.9,1.75 29.66,0.67 38.91,-7.64 4.26,-3.84 7.85,-10.49 11.77,-12.78 8.25,-4.8 11.81,-0.16 18.25,0.62 11.01,-17.7 23.02,-46.49 58.88,-40.95 11.86,1.83 9.21,2.01 22.16,1.2 34.89,-2.19 17.98,7.29 32.69,3.85 5.97,-1.4 1.82,-2.02 9.24,-2.73 11.1,-1.07 12.5,3.03 21.65,2.97 4.4,-2.57 5.12,-7.14 13.72,-5.28 6.84,1.48 6.05,4.67 12.3,8.03 8.58,-2.24 10.23,-10.25 21.66,-7.31 10.07,2.59 12.74,6.33 13.63,18.71 2.28,31.67 -30.98,63.52 -57.16,67.77 -24.82,4.04 -31.68,-6.61 -38.85,-22.11 -3.91,1.28 -5.93,7.41 -9.92,11.06 -24.48,22.43 -38.82,6.35 -45.24,5.83 -2.61,-0.22 -12.31,3.21 -17.52,4.05 -35.44,5.71 -33.51,-16.07 -41.53,-20.75 -2.62,2.57 -1.22,0.39 -2.95,4.65 -0.56,1.36 -1.03,3.77 -1.39,5.43 -1.42,16.46 -10.27,13.14 -24.57,13.14l-73.73 -0.05c-16.71,-0.1 -18.93,1.32 -29.84,-5.75 -0.5,-13.76 1.62,-17.93 12.42,-21.6 7.91,-2.69 9.73,-11.42 12.59,-20.25 3.82,-11.79 15.71,-39.46 14.96,-48.84 -15.15,-4.04 -13.86,-11.42 -7.24,-25.48 9.83,-2.01 73.03,-3.73 78.61,0.91 2.08,2.85 1.35,-0.17 1.87,5.77 0.48,5.54 -1.88,10.78 -3.88,15.75 -4.24,1.02 -4.11,1.69 -8.97,1.3zm-70.52 10.43c0,4.79 -12.18,34.93 -14.63,41.75 -6.19,17.21 -21.51,7.3 -21.51,36.32 0,25.8 47.21,16.06 64.99,15.84 13.29,-0.16 50.36,1.13 60.73,-1.43 6.32,-1.57 10.16,-5.74 15.95,-5.74 5.64,0 7.67,10.12 34.7,10.12 8.88,0 12.11,-3.09 19.01,-3.44 7.16,-0.37 9.82,3.44 20.02,3.44 17.82,0 23.41,-8.48 34.7,-14.45 9.88,5.22 13.43,14.45 36.14,14.45 14.17,0 33.15,-10.04 41.54,-17.73 4.96,-4.55 3.33,-7.82 10.51,-9.74 4.58,6.84 4.37,11.1 13.39,18.42 19.62,15.92 40.27,6.16 50.22,6.16 10.58,0 15.19,3.84 24.96,1.94 9.9,-1.93 14.64,-4.71 21.3,-9.17 11.84,2.76 25.98,18.96 59.29,4.35 7.77,-3.41 10.02,-6.48 15.89,-11.58 6.38,3.38 9.32,7.08 15.4,10.62 36.13,21.03 65.83,-12.06 69.89,-12.06 3.03,0 14.79,10.71 18.81,12.99 19.85,11.3 42.18,7.63 59.29,-5.73 8.81,-6.88 8.42,-11.61 20.41,-1.68 4.33,3.59 3.66,3.61 9.39,6.51 49.04,24.8 108.21,-21.63 93.49,-70.36 -3,-9.95 -7.4,-15.98 -15.13,-21.01 -16.78,-10.92 -38.2,-11.74 -57.92,-6.35 -12.24,3.35 -15,7.01 -24.25,11.9 -6.51,-3.44 -10.1,-8.04 -16.46,-11.01 -19.06,-8.87 -46.82,-3.77 -60.8,6.03 -4.76,3.33 -4.35,5.05 -9.48,6.42 -8.49,-5.68 -18.28,-18.98 -41.69,-17.2 -9.65,0.73 -26.84,4.87 -34.53,10.38 -5.45,3.9 -5,2.73 -10.52,5.38 -10.65,-15.9 -37.33,-19.13 -57.35,-12.54 -10.93,3.6 -11.36,6.69 -17.83,8.2 -9.72,-6.51 -4.58,-10.21 -28.91,-10.14 -5.89,0.02 -13.62,0.66 -16.78,0.48 -18.81,-1.07 -29.08,-6.85 -51.96,8.87 -4.66,3.21 -2.95,3.64 -9.33,5.13 -6.16,-4.52 -5.47,-15.9 -27.47,-15.9 -6.92,0 -10.54,2.21 -14.45,2.21 -4.07,0 -6.46,-2.21 -17.35,-2.21 -7.55,0 -7.95,2.67 -14.49,2.87l-20.21 -1.43c-5.93,0 -7.27,1.35 -12.39,0.84 -15.91,-1.56 -31.23,0.26 -42.15,-1.23 -29.24,-4.01 -44.9,4.09 -60.5,24.13 -18.51,23.76 -8.79,8.81 -26.01,17.37 -15.57,7.75 -3.29,18.16 -36.77,18.16 0,-7.05 9.1,-36.6 11.67,-43.27 6.13,-15.95 28.81,-0.2 28.81,-36.24 0,-22.11 -38.25,-14.66 -49.19,-14.4 -4.84,0.12 -6.68,-0.87 -10.29,-1.29 -15.47,-1.77 -33.71,-0.38 -38.29,16.29 -4.9,17.83 8.14,24.82 8.14,29.76zm145.71 58.13c-0.43,-10.07 11.35,-36.5 19.1,-29.21 4.26,4 -2.16,15.5 -4.15,18.93 -3.47,5.97 -6.32,9.13 -14.95,10.28zm23.28 -41.96c-15.83,-1.17 -20.9,5.9 -26.54,16.41 -2.93,5.46 -12.56,27.2 -2.88,31.67 17.6,8.12 40.04,-29.86 29.42,-48.08zm355.29 23.14c11.48,-0.63 39.81,-13.64 29.42,-24.89 -9.91,-10.73 -28.36,11.29 -29.42,24.89z"/>
    <path id="Lavanderia_x0020_Muñoz" fill="#FEFEFE" d="M1339.96 290.79c13.11,-59.65 -31.77,-71.28 -43.78,-16.5 -12.86,58.67 31.73,71.33 43.78,16.5zm259.87 33.87c-0.77,-9.17 -13.38,-15.15 0.39,-22.86 8.59,5.12 1.99,6.24 12.67,8.04 5.94,-4.27 7.46,-10.51 9.32,-21 7.4,-41.68 -11.53,-61.53 -30.68,-43.07 -15.54,14.98 -28.85,83.97 8.3,78.89zm-110.55 -0.6c25.57,2.64 37.34,-6.84 41.54,-37.37 4.56,-33.19 0.69,-49.37 -29.55,-45.95 -4.24,15.19 -12.43,67.06 -11.99,83.32zm-848.65 -83.6c-2.41,5.79 -14.22,77.88 -11.8,81.75 3.78,6.05 40.29,10.92 42.48,-47.68 1.07,-28.57 -4.45,-34.06 -30.68,-34.07zm494.2 72.88c15.12,3.47 13.77,-1.91 15.41,-13.33 1.14,-7.91 3.15,-17.35 4.3,-24.62 2.65,-16.85 6.38,-39.13 6.24,-55.96 -15.81,-0.34 -12.73,2.51 -15.37,17.62l-10.58 76.29zm-330.86 -70.93c-0.9,4.76 -5.27,26.03 -3.32,29.36 3.86,6.55 22.64,3.03 28.17,-0.9 2.42,-1.72 29.4,-37.59 -24.85,-28.46zm117.25 53.51l20.77 -0.03c1.3,-9.62 -0.98,-40 -4.55,-45.76 -3.69,4.81 -16.71,36.17 -16.22,45.79zm-451.4 0.68l18.03 0.26c3.67,-6.97 1.16,-25.71 0.04,-34.88 -1.18,-9.55 -2.58,-8.44 -3.16,-9.25 -4.26,3.91 -17.68,35.36 -14.91,43.87zm-146.19 -0.77c18.05,1.66 21.11,3.79 19.55,-13.98 -0.81,-9.18 -1.1,-21.27 -5.13,-27.22 -4.86,3.79 -16.33,31.23 -14.42,41.2zm562.39 48.02c0.07,-10.71 6.23,-23.26 10.11,-32.69 8.19,-19.87 27.45,-77.16 35.88,-90.22 6.65,-1.09 12.23,-1.64 18.13,1.04 2.67,7.93 12.17,110.42 11.44,121.85l-13.3 -0.59 -3.62 -23.57 -7.2 -2.17c-1.39,-0.24 -7.35,-0.34 -9.04,-0.34 -6.46,0 -12.06,0.13 -18.5,0.69 -10.1,25.07 -4.99,26.59 -23.9,26zm-584.04 -0.52l-15.42 0.92c0.51,-12.21 17.35,-50.76 22.36,-62.55 19.08,-44.87 16.16,-66.26 37.67,-60.9 4.31,1.07 1.47,-0.07 3.86,1.69 1.94,2.13 17.04,115.15 11.02,120.77 -3.76,3.52 -11.72,2 -13.66,-3.93 -1.4,-4.3 -1.54,-15.57 -2.47,-21.28 -34.52,-3.65 -33.87,-3.58 -43.36,25.28zm131.03 0.9c-0.47,-4.87 38.33,-108.85 46.48,-123.58 25.6,-2.3 17.34,-3.95 24.37,50.36l5.82 71.91 -13.96 0.76c-2.79,-26.58 5.39,-28.21 -35.7,-26.62 -11.66,14.16 -2.38,30.2 -27.01,27.17zm193.37 -123.43c33.9,-3.04 58.63,-1.07 61.21,39.12 1.98,30.94 -3.75,64.15 -24.1,77.47 -13.05,8.54 -24.7,7.54 -43.13,7.44 -15.55,-0.09 -12.73,-1.99 -7.47,-36.62 3.55,-23.37 7.37,-65.49 13.49,-87.41zm843.26 122.98c-0.14,-13.71 14.28,-114.1 18.71,-122.91 20.87,-2.3 42.69,-2.87 51.59,12.36 15.74,26.91 11.57,75.73 -12.03,101.2 -11.24,12.13 -38.41,10.84 -58.27,9.35zm154.12 15.1c-4.77,-1.81 -8.93,-9.7 -12.68,-14.15 -12.51,-0.28 -52.47,14.62 -51.21,-52.13 0.54,-28.48 11.49,-65.62 35.34,-72.37 38.11,-10.79 47.8,29.6 44.75,61.32 -1.58,16.35 -4.61,29.68 -12.53,41.99 -7.65,11.89 -3.77,8.76 1.54,18.23 4.01,7.17 -0.35,13.73 -5.21,17.11zm-266.28 -71.71c-2.27,13.56 -4.33,28.53 -12.76,39.84 -26.85,36.01 -76.26,24.9 -65.73,-49.68 12.23,-86.62 92.55,-74.09 78.49,9.84zm-583.93 57.07c-1.39,-9.16 14.67,-116.65 17.41,-123.7 38.41,-1.01 60.66,-5.58 63.11,28.62 2.46,34.15 -19.66,39.37 -23.7,43.44 1.42,14.13 16.78,36.9 13.73,51.88l-14.78 -0.12c-8.11,-15.52 -6.23,-32.89 -18.24,-50.4l-13.07 0.4c-8.1,11.95 -5.94,35.09 -10.49,49.64l-13.97 0.24zm-497.26 -47.58c-1.21,2.38 -4.45,3.91 -11.82,4.7l9.88 -60.32c-0.24,-3.04 -0.28,-6.29 -0.31,-8.15l-0.34 -6.9c-0.56,-2.94 -0.59,-6.03 -0.59,-8.58l-7.22 -12.68c-15.72,-3.03 -18.93,-13.02 -46.97,4.56l-7.64 54.22c-2.36,9.11 -5.17,11.18 -6.96,20.35 -1.93,9.87 -2.97,14.92 -3.29,25.07 -0.64,20.02 -5.56,29.32 0.12,49.79 14.89,11.26 81.83,5.68 105.75,6.03 7.14,-0.86 8.76,-3.71 11.97,-8.26 1.78,-5 3.13,-10.78 8.01,-12.86 7.77,18.04 8.78,21.06 32.9,20.27 11.04,-0.36 12.75,-3.43 24.99,-1.29 10.83,1.9 17.71,0.71 28.17,1.66 54.96,4.09 46.16,-1.56 60.54,-20.49 6.2,14.59 1.95,21.21 22.12,22.4 9.03,0.54 39,1.08 46.9,-0.21 10.56,-1.73 5.65,-7.49 17.37,-4.28 23.3,6.38 38.54,3.52 67.92,3.61 38.26,0.13 24.44,-2.2 40.88,-6.4 8.46,-2.16 10.03,2.8 16.02,5.35 9.81,4.15 102.91,2.67 115.13,1.21 2.95,-4.42 3.1,-7.02 7.24,-10.59 10.92,2.78 7,11.2 23.41,11.84 12.21,0.48 25.76,-0.17 38.16,-0.15 29.3,0.05 46.46,5.33 53.64,-20.55 7.73,5.73 8.19,26.66 45.93,19.12 9.18,-1.83 6.34,-4.77 14.51,-8 11.2,3.79 6.67,8.32 25.28,8.47l68.95 0.18c16.92,0.1 15.64,-3.26 25.29,-9.46 5.43,0.94 11.12,6.2 16.67,8.21 25.02,9.04 40.49,-1.81 47.21,-3.16 7.25,-1.45 27.7,9.99 46.43,1.55 20.55,-9.25 8.57,8.49 45.37,2.05 11.04,-1.93 8.34,-7.21 16.35,-10.99 9.56,3.26 12.42,9.63 26.9,13.03 18.09,4.24 22.83,-2.74 34.02,-3.1 7.52,-10.33 12.92,-0.98 22.48,0.75 4.36,0.79 71.43,2.46 79.11,-2.15 1.43,-0.86 2.77,-2.4 3.7,-3.23l5.83 -4.78c8.52,2.34 1.39,-0.33 7.72,4.63 16.23,12.72 54.65,5.23 71.94,2.32l23.55 -16.08c6.91,4.48 11.12,11.5 20.63,17.2 11.64,6.98 24.02,2.91 32.66,7.03 6.75,3.21 8.49,14.76 26.2,12.13 12.36,-1.83 16.24,-12.65 19.67,-20.79 12.03,1.2 45.86,20.29 71.91,-11.34 25.12,-30.5 9.29,-60.75 8.94,-75.11 7.31,-6.52 6.15,-3.54 10.65,-13.34l0.43 -4.66c1.69,-15.07 -2.28,-20.11 -4.6,-27.4 -2.3,-2.46 -4.09,-5.15 -5.01,-8.39 -1.7,-2.12 -2.82,-4.22 -3.56,-6.28l-5.91 -8.36c-3.82,-1.41 -7.66,-4.01 -10.6,-6.9l-0.7 -0.34c-1.48,-0.22 -2.94,-0.66 -4.32,-1.24 -3.92,-0.15 -7.87,-1.32 -10.5,-1.93l-18.22 1.55c-0.7,0.4 -1.73,0.88 -3.33,1.47l-7.81 3.51c-2.98,2.92 -7.26,6.09 -13.54,9.54 -7.61,6.83 -11.59,-2.97 -21.08,-8.43 -38.52,-22.18 -66.98,14.07 -74.66,16.28 -19.7,-21.77 -30.8,-23.97 -70.76,-20.99 -33.84,2.53 -16.82,49.76 -27.82,64.39l-7.48 50.41c-6.83,-2.82 -5.05,-5.09 -9.94,-7.84 -4.09,-2.29 -9.89,-2.29 -14.87,-3.22 1.34,-16.12 24.66,-40.69 30.11,-60.83 3.75,-46.7 4.51,-43.55 -74.96,-43.05 -24.64,0.16 -19.35,15.23 -28.92,5.08 -15.74,-4.11 -15.81,-9.09 -37.82,-6.51 -11.04,1.3 -23.13,13.15 -32.04,4.51 -4.39,-4.51 -2.1,-0.7 -2.21,-8.41 -0.1,-6.59 2.22,-14.24 -6.51,-21.1 -7.27,-5.71 -49.42,-8.4 -60.94,2.77 -8.09,7.84 -8.11,14.73 -12.62,23.36 -7.98,0.52 -15.66,0.12 -23.61,0.3 -14.02,0.31 -9.1,2.36 -17.13,4.84 -9.6,2.97 -7.26,-1.79 -16.12,-3.92l-66.32 -0.85c-7.61,0.25 -12.66,2.82 -19.49,1.99 -7.45,-0.89 -10.42,-2.32 -20.25,-2.37 -42.44,-0.23 -35.08,9.52 -41.36,47.84 -2.72,16.64 -7.67,63.83 -12.27,74.98 -4.83,-10.54 -9.26,-79.91 -11.48,-100.66 -1.6,-14.94 -4.08,-14.6 -12.46,-20.47l-13.59 -5.75c-4.38,0.02 -8.34,-0.08 -12.34,-2.22 -4.52,0.42 -9.22,-1.7 -11.42,-6.96 -2.09,-2.02 -3.75,-4.66 -5.04,-7.72l-3.26 -5.22c-0.46,-0.86 -1.01,-1.57 -1.6,-2.21 -1.73,-0.61 -3.33,-1.15 -4.11,-1.54l-9.29 -2.78 -22.88 -0.34c-0.52,0.21 -1.04,0.4 -1.54,0.56 -11.01,8.3 -8.32,7.81 -22.09,35.6 -11.36,0.49 -26.87,-2.63 -41.65,-2.56l-88.74 -0.43c-26.96,-0.48 -17.73,3.15 -32.59,11.31 -9.15,-2.38 -12.6,-8.52 -24.07,-10.15l-68.36 -0.97c-7.48,0.15 -10.05,0.57 -15.59,2.94 -2.49,1.06 -8.74,5.93 -10.49,0.79 -42.71,-12.98 -41.17,3.99 -51.71,8.54 -6.84,-6.35 -5.94,-11.64 -19.81,-12.52 -10.63,-0.67 -22.12,0.92 -32.7,0.85 -9.36,-0.06 -23.67,-2.11 -32.39,-0.37 -11.71,2.32 -9.85,8.95 -18.31,14.6 -12.17,-6.55 -1.24,-16.02 -34.39,-14.61 -10.89,0.46 -18.47,1.3 -24.68,0.87 -3.52,0.66 -7.43,0.47 -10.96,0.11l-16 -0.35 -11.84 7.51c-0.75,1.02 -1.51,2.01 -2.25,2.95 -0.53,2.54 -1.59,4.25 -2.81,5.96 -0.57,2.11 -1.53,4.37 -2.98,6.74 -6.11,10.05 -4.4,13.09 -7.35,18.18 -0.42,0.75 -0.82,1.46 -1.23,2.14l-0.82 2.03c-0.28,1.38 -0.63,2.6 -0.95,3.46 -0.99,2.72 -1.82,5.29 -2.96,7.14l-1.02 3.55c-0.88,2.08 -1.92,5.32 -3.67,7.33 -0.92,2.09 -1.84,4.19 -2.89,6.22 0.04,1.18 -0.36,2.43 -1.39,3.61l-1.32 2.91c-1.02,2.97 -1.97,5.79 -3.47,7.48l-3.13 6.38c-1.11,1.95 -2.33,3.15 -3.52,3.78zm806.14 46.55l-13.04 0.7c0.06,-13.72 3.82,-26.32 5.68,-39.91 2,-14.66 3.64,-27.39 3.73,-42.33 -4.39,3.56 -4.66,7.57 -8.46,18.69 -2.01,5.9 -4.87,14.86 -6.52,20.2 -4.29,13.88 -7.43,31.69 -13.74,42.77 -16.98,1.59 -15.18,7.17 -15.94,-39.87 -0.28,-17.19 -0.36,-34.62 -1.56,-51.91 -8.63,23.6 -8.28,65.1 -15.21,91.8l-13.25 0.73 16.88 -123.03 24.42 -0.37c1.07,10.59 1.28,24.59 1.49,35.65l0.42 27.32c0.16,2.05 0.22,3.13 0.7,5.14 1.18,4.96 0.3,2.14 1.69,4.5 8.33,-7.62 17.24,-52.85 26.19,-72.23l22.35 -0.68c1.15,11.86 -12.77,113.45 -15.83,122.83zm-209.44 -0.89l-15.62 2.05 16.44 -122.88 15.67 -0.97c1.77,13.6 -5.93,45.19 -7.49,59.39 -2.06,18.67 -5.37,42.85 -9,62.41zm775.9 -37.15l12.88 -0.76c5.13,9.1 1.81,20 16.38,21.2 12.27,1 20.62,-5.75 18.71,-18.44 -2.38,-15.86 -29.95,-17.46 -36.38,-38.83 -6.94,-23.06 2.87,-47.01 23.27,-49.64 21.58,-2.78 40.41,16.62 34.79,36.37l-13.27 0.89c-5.51,-10.23 -3.39,-19.59 -19.83,-17.61 -11.99,1.44 -13.41,15.3 -6.99,23.15 12.11,14.81 32.98,13.67 35.42,40.38 5.25,57.28 -70,62.08 -64.98,3.29zm-1060.94 37.8l-13.43 1.09c-6.92,-14.38 -16.91,-68.48 -22.79,-76.58 -9.26,14.25 -6.37,59.98 -14.49,75.27l-12.77 1.15c-0.32,-14.7 10,-80.72 13.29,-102.04 2.5,-16.16 -1.22,-23.7 17.59,-21.04 4.06,2.38 14.39,50.48 18.07,61 2.46,7.01 0.41,4.95 5.47,7.74 6.11,-5.02 6.42,-24.98 7.67,-33.17 1.36,-8.83 3.11,-29.17 5.85,-35.31l13.38 -0.61c1.35,7.27 -14.88,117.68 -17.84,122.5zm628.37 -72.36c-11.25,10.26 -5.63,58.39 -16.3,72.86l-11.38 0.47c-0.49,-11.81 13.12,-111.27 16.8,-121.96 5.47,-2.14 9.19,-1.47 15.47,-0.74 4.29,14.64 16.14,68.92 22.27,74.62 5.79,-11.09 9.3,-48.5 11.17,-64.98 1.33,-11.79 2.26,-11.54 15.45,-9.78 1.23,8.01 -13.45,117.88 -17.67,121.86 -2.35,2.22 -9.58,2.51 -12.7,0.68 -4.19,-2.46 -6.31,-18.44 -8.03,-24.83 -2,-7.47 -10.76,-43.06 -15.08,-48.2zm-976.09 52.62l40.28 1.33c1.5,6.12 -0.01,14.5 -2.63,18.35 -6.71,4.42 -47.95,2.42 -57.26,0.16 0.23,-14.48 13.28,-112.4 16.62,-122.22l15.59 -0.41c2.24,30.13 -14.41,72.17 -12.6,102.79zm1147.54 0.61l40.27 0.93 -2.38 18.79c-14.92,0.93 -50.73,3.45 -61.41,-1.43 -0.22,-0.47 -0.43,-1.72 -0.48,-1.47 -0.05,0.25 -0.37,-1.11 -0.42,-1.48l1.22 -12.28c2.92,-10 40.03,-67.91 42.78,-75.3l0.49 -9.41 -32.44 -1.43 0.51 -19.55 60.16 -0.71c3.35,30.42 -49.91,87.13 -48.3,103.34zm-252.94 -10.5l10.58 -76.29c2.64,-15.11 -0.44,-17.96 15.37,-17.62 0.14,16.83 -3.59,39.11 -6.24,55.96 -1.15,7.27 -3.16,16.71 -4.3,24.62 -1.64,11.42 -0.29,16.8 -15.41,13.33zm-365.92 -72.37l-43.35 0.76c-2.67,5.5 -5.7,22.43 -1.87,25.81 8.69,7.67 40.98,-9.57 39.29,11.81 -0.26,3.15 -1.47,6.76 -3,9.43 -13.74,1.93 -32.39,-2.32 -43.46,2.86 -1.51,4.2 -1.44,10.15 -2.22,14.96 -0.7,4.29 -2.2,7.63 -0.95,12.65 2.69,10.87 26.22,4.01 47.01,5.73 0.04,7.4 -0.75,13.08 -4,18.3 -10.1,1.45 -20.58,0.75 -30.79,0.67 -4.85,-0.04 -9.68,-0.12 -14.52,-0.09 -22.85,0.1 -18.72,2.44 -9.04,-62.12 2.2,-14.68 5.12,-47.56 9.08,-60.54 9.74,-1.77 50.73,-1.71 60.61,-0.04l-2.79 19.81zm-377.85 101.97c-3.16,-20.64 -15.24,-107.57 -13.02,-122.38l14.76 0.5c4.9,19.96 4.58,71.61 10.44,85.41 7.2,-0.88 5.65,-6.15 12.03,-21.66l18.9 -49.75c4.56,-13.59 2.51,-15.87 19.56,-14.4 0.29,9.81 -20.14,55.1 -24.05,67.26 -4.28,13.33 -8.45,23.12 -12.76,34.34 -6.31,16.44 -3.67,24.35 -25.86,20.68zm782.67 -121.82l14.43 -0.32c0.83,11.71 -9.19,91.33 -20.08,108.69 -19.18,30.61 -68.99,22.22 -59.56,-34.34 3.73,-22.36 6.62,-52.66 12.46,-74.22l15.21 -0.34c3.4,34.66 -32.69,108.69 5.75,104.78 27.46,-2.79 19.93,-64.3 31.79,-104.25zm48.92 -12.92c-1.79,-8.72 2.08,-13.66 6.43,-18.4 10.41,-0.19 8.03,2.08 14.78,3.21 10.24,1.71 4.39,-1.87 14.12,-3.39 3.12,26.79 -20.15,14.56 -22.17,14.34 -10.53,-1.19 -3.82,4.18 -13.16,4.24zm-347.61 -0.04c-0.86,-6.74 6.77,-19.2 10.08,-24.23l12.36 0.37c-0.28,4.17 -9.04,25.31 -22.44,23.86z"/>
   </g>
  </g>
  <path fill="none" stroke="#373435" stroke-width="8.33" stroke-miterlimit="22.9256" d="M962.1 14.11c521.16,0 943.65,141.76 943.65,316.63 0,174.87 -422.49,316.63 -943.65,316.63 -521.17,0 -943.66,-141.76 -943.66,-316.63 0,-174.87 422.49,-316.63 943.66,-316.63z"/>
 </g>
</svg>
