<?xml version="1.0" encoding="UTF-8"?>
<!DOCTYPE svg PUBLIC "-//W3C//DTD SVG 1.1//EN" "http://www.w3.org/Graphics/SVG/1.1/DTD/svg11.dtd">
<!-- Creator: CorelDRAW 2020 (64-Bit) -->
<svg xmlns="http://www.w3.org/2000/svg" xml:space="preserve" width="1890px" height="827px" version="1.1" shape-rendering="geometricPrecision" text-rendering="geometricPrecision" image-rendering="optimizeQuality" fill-rule="evenodd" clip-rule="evenodd"
viewBox="0 0 1890 826.88"
 xmlns:xlink="http://www.w3.org/1999/xlink"
 xmlns:xodm="http://www.corel.com/coreldraw/odm/2003">
 <g id="Capa_x0020_1">
  <metadata id="CorelCorpID_0Corel-Layer"/>
  <g id="_2286056101840">
   <path d="M1054.24 359.82c23.24,-2.78 0.97,-0.41 19.75,-7.37 16.08,7.3 38.98,22.04 40.95,-10.29 -9.06,-0.15 -8.88,1.92 -17.36,7.09 -18.82,-7.53 -37.12,-21.38 -43.34,10.57zm-281.37 -60.98l49.48 1.35c23.37,0 12,1.4 16.52,-7.51 -4.86,-11.3 3.65,-8.24 -20.01,-9.01 -8.35,-0.27 -18.93,0.47 -27.8,0.37l-0.83 -93.13 -15.05 -0.48c-7.55,18.26 -2.89,84.05 -2.31,108.41zm899.78 -104.45c1.02,10.15 0,5.5 4.62,9.93 0.75,0.72 3.85,2.56 4.68,3.11l5.7 69.53c-5.4,13.94 7.08,-6.11 -3.76,4.8 -0.57,0.58 -3.45,3.09 -4.19,3.87 -6.3,6.6 -4.25,-9.22 -7.01,10.98 9.53,5.89 38.52,6.37 48.48,0 -1.74,-14.39 -13.17,-9.27 -15.3,-19.65l-0.06 -66.85c0.97,-0.62 2.61,-2.26 3.07,-1.42l7.82 -4.67c5.98,-5.9 2.17,7.2 4.85,-9.63 -9.55,-7.13 -39.19,-6.86 -48.9,0zm-1259.46 -3.93c0.67,0.67 1.75,0.72 2.06,1.95l41.45 41.2c19.88,-29.66 33.37,-31.53 42.31,-43.15 -16.82,-16.04 -32.44,-23.18 -40.97,-44.08 -9.58,7.7 -12.06,16.11 -20.63,24.82 -9.33,9.47 -13.45,8.53 -24.22,19.26zm596.42 109.72c30.31,0.01 22.82,0.23 39.24,-52.48 5.91,-18.97 12.34,-37.72 17.13,-57.02 -28.62,-0.87 -22.48,21.68 -43.81,86.02 -25.73,-37.72 -7.16,-88.48 -46.38,-85.86l33.82 109.34zm299.07 165.2c12.04,-27.75 54.75,-60.91 51.84,-93.37l-71.92 1.87 0.57 15 48.39 1.01c-13,31.72 -50.75,55.83 -51.5,92.02 15.9,0.58 31.76,0.43 47.68,0.67 21.51,0.33 27.95,5.35 29.3,-12.97 -11.14,-8.72 -38.46,-4.39 -54.36,-4.23zm148.92 -180.56l0.41 15.34 56.39 0.04c17.5,-3.44 6.38,4.17 11.7,-7.52 -4.47,-11.55 2.93,-7.88 -19.16,-8.97 -9.62,-0.48 -20.39,0.51 -30.94,-0.06l-0.69 -30.11c8.77,-0.61 15.96,0.04 23.75,-0.32 20.46,-0.96 14.07,3.28 19.79,-7.72 -5.56,-14.31 13.02,-7.17 -42.2,-9.64l-0.59 -28.3c50.49,-2.44 50.07,5.41 49.69,-9.05 -0.39,-14.73 -13.77,-8.39 -68.15,-8.38l0 94.69zm340.86 -71.84l13.74 43.23 -31.29 0.93c3.48,-15.48 8.12,-34.01 17.55,-44.16zm-50.07 86.92c26.63,-0.35 16.67,-2.21 26.5,-25.43l42.48 -0.3c11.17,21.88 -0.36,26.2 26.99,25.62 -3.16,-16.89 -11.97,-38.35 -17.97,-55.87 -18.45,-53.86 -9.91,-54.61 -40.79,-53l-37.21 108.98zm-841.36 -87.66c6.95,10.06 13.42,30.74 16.86,44.1l-31.22 1.02 14.36 -45.12zm-46.97 87.65c24.95,-0.28 17.71,-2.49 26.57,-25.35l41.88 -0.14c12.77,20.92 -1.38,25.87 27.46,25.5l-27.36 -85.81c-7.97,-24.56 -5.39,-24.06 -32.86,-24.05l-35.69 109.85zm892.78 146.55c-0.42,16.77 -6.38,24.22 -25.26,21.83 -26.11,-3.32 -10.94,-18.49 -36.49,-6.5 9.5,31.48 66.07,28.93 77.39,5.81 22.06,-45.01 -35.86,-48.84 -58.07,-59.45 -1.11,-26.55 18.49,-25.17 35.34,-16.64 9.19,4.64 -3.21,6.29 15.39,6.11l7 -7.81c-16.78,-24.92 -65.64,-29.34 -74.93,3.32 -12.07,42.46 37.37,34.45 59.63,53.33zm-618.49 -232.74l14.02 43.11 -32.1 -0.25 18.08 -42.86zm-49.68 86.24c25.28,-0.38 17.51,-1.43 26.31,-25.13l43.85 -0.45c9.14,24.24 0.66,25.3 26.07,25.71l-35.95 -109.57 -24.12 -0.21 -36.16 109.65zm-164.02 72.39c-0.12,0.16 -31.74,113.17 39.29,112.57 54.59,-0.46 45.54,-64.28 42.01,-112.55l-16.5 0.9c-2.08,29.81 1.34,62.56 -5.71,89.12 -40.39,16.98 -46.1,-5.04 -45.65,-43.72 0.67,-56.9 3.55,-45.09 -13.44,-46.32zm263.51 69.76c-9.86,-65.99 47.89,-74.83 53.1,-26.68 7.18,66.39 -46.88,68.34 -53.1,26.68zm-17.83 3.93c11.6,59.45 102.69,56.62 89.28,-35.4 -9.16,-62.82 -107.19,-56.43 -89.28,35.4zm415.41 -239c20.4,-0.52 41.36,-5.05 39.12,18.54 -1.87,19.6 -20.99,15.62 -39.88,15.35l0.76 -33.89zm-18.48 77.8l0.88 14.76 13.1 0.64c5.88,-9.69 3.95,-28.4 3.8,-43.1 21.52,-0.42 21.42,6.28 30.04,21.36 11.16,19.51 8.35,22.17 33.09,21.38l-25.44 -42.3c1.12,-1 2.34,-2.99 2.69,-2.3 0.93,1.86 32.96,-28.63 11.61,-53.63 -11.99,-14.05 -48.53,-14.07 -69.87,-9.7l0.1 92.89zm-91.05 106.2c34.29,-5.74 47.39,5.39 46.25,39.26 -1.09,32.6 -12.86,37.59 -46.19,33.97l-0.06 -73.23zm-17.7 91.24c52.47,0 83.36,2.99 82.76,-55.85 -0.59,-57.43 -32.69,-53.42 -82.52,-54.28l-0.27 105.35 0.03 4.78zm-97.64 -198.21l-0.68 -77.1c32.96,0.11 46.06,1.96 46.04,38.57 -0.02,33.94 -14.42,38.52 -45.36,38.53zm-18.46 15.13c52.66,5.62 82.78,0.97 82.67,-53.69 -0.12,-53.21 -31.53,-59.27 -83.02,-54.45l0.35 108.14zm-280.15 182.54c9.38,-19.86 1.4,-57.31 4.47,-82.22 10.08,13.84 17.22,30.43 26.11,47.33 3.31,6.31 10.68,22.67 13.17,26.24 8.77,12.53 5.49,10.54 26.07,7.98l-0.76 -108.54 -16.31 0.85 -1.06 73.08c-11.92,-11.03 -31.33,-54.56 -41.18,-74.05l-24.37 0.83 -0.89 93.01c1.13,18.46 -2.7,15 14.75,15.49zm155.42 -182.34l17.09 0.66 0.64 -81.76c37.37,42.77 20.47,83.09 66.32,81.62 0.54,-19.52 3.74,-97.52 -3.56,-109.67l-11.82 0.46 -2.35 72.91c-20.6,-16.96 -31.95,-70.71 -48.74,-73.59l-17.9 1.41 0.32 107.96zm387.99 91.19c44.06,-26.26 51.05,60.43 26.38,74.88 -41.87,24.53 -55.38,-57.59 -26.38,-74.88zm33.74 90.3c3.2,-2.81 5.7,-3.43 9.53,-6.68 22.75,-19.28 23.82,-91.94 -13.8,-101.83 -74.99,-19.71 -71.63,78.06 -49.54,100.72 8.62,8.85 12.44,6.22 21.83,13.66 5.2,4.12 22.76,34.05 55.57,18.26 -4.9,-19.59 -9.59,-9.16 -32.34,-13.98l8.75 -10.15zm-813.06 -27.47c12.62,-4.29 12.11,-9.65 19.23,-23.52 4.63,-9.01 9.05,-17.85 15,-26.02 3.05,25.01 -2.31,65.05 5.09,78.21 19.9,-1.24 14.05,5.33 13.93,-47.83 -0.05,-20.18 0.72,-40.51 -0.48,-61.23l-21.29 -0.85c-4.16,8.74 -9.08,17.58 -14.42,28.03 -2.58,5.02 -5.11,10.86 -8.06,15.54l-8.42 10.88 -28.25 -54.61 -21.43 1.34c-1.43,20.19 -0.56,40.64 -0.63,60.9 -0.2,54.51 -5.38,47.17 14.35,47.38 8.13,-18.36 2.64,-53.79 3.23,-76.62 3.52,3.61 2.18,1.87 6.16,7.47 9.55,13.44 13.2,31.7 25.99,40.93zm-300.42 -222.95c28.69,8.34 73.8,55.85 86.36,84.29 22.04,-35.49 45.68,-67.19 86.95,-86.44 -40.93,-23.66 -62.64,-47.24 -87.19,-87.07 -27.04,54.83 -66.84,70.6 -86.12,89.22zm-476.52 -114.7c14.12,14.7 51.57,-9.44 72.29,-16.57 158.06,-54.38 320.87,-63.38 485.21,-27.54 50.65,11.04 151.86,51.79 164.71,49.71 -3.4,-19.27 -13.29,-17.86 -31.66,-25.37 -12.62,-5.16 -27.36,-10.14 -40.38,-14.73 -150.81,-53.24 -331.96,-61.43 -487.88,-25.64 -36.97,8.48 -150.25,35.88 -162.29,60.14zm215.99 619.94c16.81,15.64 29.22,37.1 43.64,58.58 22.47,-56.98 87.12,-90.25 100.5,-104.48 -13.76,-14.19 -49.61,-28.72 -80.89,-72.47 -5.79,-8.09 -5.54,-8.2 -10.79,-16.49l-11.57 -14.43c-15.99,35.33 -41.53,60.68 -70.5,82.91l-28.32 20.48 57.93 45.9zm-151.35 -197.43c3.27,-31.19 17.65,-47.1 48.88,-49.42 -0.04,37.74 -0.71,17.33 -18.08,38.63 -7.52,9.23 4.05,10.97 -30.8,10.79zm-32.75 13.92c18.68,106.14 178.52,81.77 163.03,-27.27 -5.99,-42.16 -46.56,-76.66 -97.97,-67.43 -39.4,7.07 -73.44,47.09 -65.06,94.7zm455.49 77.24c3.01,-41.87 28.59,-66.56 70.66,-68.79 0.66,30.66 0.78,22.34 -17.27,30.6 -43.36,19.82 -1.72,42.11 -53.39,38.19zm-32.43 21.05c7.24,49.97 61.46,96.21 123.36,84.16 49.85,-9.69 96.17,-59.41 83.79,-122.59 -25.84,-131.98 -227.68,-103.29 -207.15,38.43zm-275.64 -400.82l-17.69 0c2.37,-39.89 31.17,-74.7 70.9,-69.59l0.22 24.21c-56.19,13.82 -29.52,35.59 -53.43,45.38zm22.15 -100.37c-133.22,42.18 -69.82,239.44 59.6,201.58 136.31,-39.88 74.35,-243.99 -59.6,-201.58zm138.56 351.03c-3.07,-65.59 48.18,-109.68 111.3,-113.7l0 20.09c-5,21.31 -69.21,-9.38 -87.33,93.59l-23.97 0.02zm86.32 143.61c-0.69,-51.95 16.86,-89.9 48.53,-114.68 37.43,-29.28 68.95,-32.35 124.05,-24.64 -3.07,-142.22 -151,-191.23 -244.73,-115.66 -86.14,69.46 -54.72,238.51 72.15,254.98zm1249.21 -90.25c-83.06,48.26 -112.75,63.63 -216.28,23.86 -173.83,-66.76 -301.12,-70.02 -476.63,-0.53 -118.62,46.96 -141.07,14.93 -218.73,-22.52l21.83 73.22c-10.42,2.76 -15.67,5.67 -25,10.48 -10.6,5.47 -12.19,5.75 -19.64,13.17 72.95,37.06 117.2,84.68 233.07,39.09 189.75,-74.66 310.99,-71.7 499.33,2.67 99.54,39.31 155.85,-1.54 226.82,-44.04l-46.51 -22.18 21.74 -73.22z"/>
  </g>
 </g>
</svg>
