<?xml version="1.0" encoding="UTF-8"?>
<!DOCTYPE svg PUBLIC "-//W3C//DTD SVG 1.1//EN" "http://www.w3.org/Graphics/SVG/1.1/DTD/svg11.dtd">
<!-- Creator: CorelDRAW 2020 (64-Bit) -->
<svg xmlns="http://www.w3.org/2000/svg" xml:space="preserve" width="1713px" height="661px" version="1.1" shape-rendering="geometricPrecision" text-rendering="geometricPrecision" image-rendering="optimizeQuality" fill-rule="evenodd" clip-rule="evenodd"
viewBox="0 0 1713 661.57"
 xmlns:xlink="http://www.w3.org/1999/xlink"
 xmlns:xodm="http://www.corel.com/coreldraw/odm/2003">
 <g id="Capa_x0020_1">
  <metadata id="CorelCorpID_0Corel-Layer"/>
  <g id="_1940120209472">
   <path  d="M663.83 212.1l22.61 -0.36c1.13,-8.3 0.36,-15.41 -4.68,-22.61 -7.16,3.88 -16.78,15.89 -17.93,22.97zm677.15 211.88c15.33,-1.89 16.87,-19.85 19.92,-29.11 8.67,-26.36 37.74,-93.6 30.95,-112.14 -26.47,-0.48 -31.04,41.61 -38.05,65.22 -3.85,12.98 -8.01,25.67 -12.16,38.53 -3.47,10.74 -13.5,29.27 -0.66,37.5zm-1078.82 85.77c17.66,-3.21 318.13,3.42 389.63,-1.56 39.09,-2.72 77.84,-7.88 116.87,-10.7 100.43,-7.25 315.94,9.29 381.96,-6.83 19.68,-4.81 37.44,-6.68 58.24,-6.31 25.91,0.47 30.58,4.34 52.89,9.17 -20.15,16.19 -188.18,63.32 -224.49,71.49 -43.21,9.73 -82.96,16.99 -126.94,24.27 -120.56,19.95 -323.05,20.62 -438.2,-2.19 -40.47,-8.01 -80.98,-16.91 -118.77,-30.32 -21.63,-7.67 -31.52,-10.31 -51.24,-21.31 -8.02,-4.47 -40.39,-20.72 -39.95,-25.71zm540.88 -206.28c24.25,-2.35 62.65,2.29 71.24,22.39 7.04,16.46 -7.89,48.07 -13.3,65.52 -13.76,44.36 -32.55,73.86 -99.21,80.27 -93.98,9.05 -75.35,-41.69 -58.95,-88.09 16.88,-47.77 26.7,-72.96 100.22,-80.09zm-309.04 169.63c-5.28,-16.45 26.18,-98.6 33.6,-120.2 3.31,-9.63 5.8,-20.45 9.8,-29.73 5.8,-13.46 9.88,-13.33 28.47,-14.04 16.35,-0.62 29.13,-1.38 45.1,1.8 17.41,3.47 21.11,-2.85 38.2,-5.73 76.38,-12.9 34.72,67.69 26.88,95.62 -5.51,19.64 -14.77,38.18 -19.62,57.84 -3.86,15.6 -6.66,13.9 -28.15,15.16 -13.2,0.78 -30.65,2.5 -41.86,-2.34 -10.64,-29.86 45.16,-105.67 34.22,-133.58 -30.21,-4.98 -44.5,117.42 -62.84,137.45l-63.8 -2.25zm-107.38 -23.8c24.33,2.43 24.47,-26.58 29.93,-41.13 6.26,-16.68 11.32,-33.61 15.56,-50.63 2.93,-11.72 6.51,-40.23 23.24,-44.96 7.79,-2.2 29.72,-2.28 38.8,-2.42 16.22,-0.24 24.8,0.78 22.25,14.78l-34.52 100.63c-19.25,54.76 -14.45,48.8 -56.5,51.64 -18.47,1.24 -21.46,2.85 -32.82,-5.79 -19.61,4.86 -53.22,18.21 -71.05,5.29 -17.23,-12.48 -7.04,-39.42 -1.89,-54.56 5.98,-17.6 11.25,-37.08 18.71,-54.15l17.95 -53.33c18.72,0.05 48.94,-0.88 66.31,1.7 0.86,17.43 -34.18,108.95 -35.97,132.93zm513.16 -114.29c-3.3,-8.1 -1.04,-28.63 9.41,-33.84 9.05,-4.51 39.43,-3.14 51.31,-3.43 40.54,-1 76.19,-16.4 58.36,28.56 -10.26,25.87 -82.01,80.92 -83.05,103.8l43.43 1.86 -10.9 30.33 -122.32 4.33c-5.25,-39.94 93.61,-104.93 89.88,-130.22l-36.12 -1.39zm156.67 123.58c-6.45,-14.82 34.48,-124.36 41.67,-147.59 8.59,-27.73 3.83,-51.42 50.7,-52.65 25.58,-0.67 91.79,-2.85 112.47,7.04 30.44,14.57 -16.96,123.02 -26.07,147.25 -9.44,25.08 -28.27,38.01 -62.19,44.13 -21.26,3.83 -96.98,5.51 -116.58,1.82zm258.42 -3.55c-31.67,-10.37 -57.84,-6.88 -52.7,-42.7 3.15,-21.99 14.74,-45.75 20.69,-67.85 12.19,-45.3 29.42,-82.69 96.55,-94.18 25.93,-4.44 69.33,0.14 82,20.73 11.88,19.3 0.39,50.14 -7.52,69.82 -8.58,21.33 -14.63,44.78 -23.89,65.24 -16.47,36.35 -49.88,24.55 -55.63,41.82 10.24,5.1 26.25,3.18 38.44,4.64 0.8,26.41 -16.71,25.02 -48.22,24.37 -63.44,-1.3 -40.79,-4.78 -49.72,-21.89zm-1111.61 -101.03c20.53,-13.53 28.71,-53.17 51.06,-69.05 14.19,-10.08 45.38,-8.61 63.92,-7.03 30.81,2.62 20.08,18.52 14.22,33.89 -10.54,27.65 -19.5,57.63 -29.2,86.35 -4.74,14.05 -9.63,28.47 -14.93,42.26 -5.61,14.61 -12.5,26.32 -18.31,40.69l-55.47 0.86c-0.29,-30.38 25.56,-73.8 28.97,-105.11l-62.92 105.79 -37.95 -0.01c-7.53,-12.22 15.32,-92.21 8.54,-105.96 -4.67,15.38 -34.71,99.19 -41.97,108.92l-61.18 0.59 65.05 -199.3c25.74,-3.28 68.09,-2.16 95.23,-1.47l-5.06 68.58zm1322 63.74c21.88,5.92 32.4,-20.61 28.41,-33.02 -8.63,-26.79 -108.86,-35.9 -59.79,-104.48 33,-46.14 198.79,-62.11 151.42,26.52l-65.77 0.71 1.13 -27.99c-28.04,-0.85 -24.67,26.2 -13.46,35.97 12.1,10.53 30.07,14.35 43.16,24.25 25.63,19.37 21.37,67.26 -4.05,86.1 -27.58,20.43 -74.17,32.07 -113.01,24.48 -19.16,-3.75 -33.51,-13.05 -39.27,-27.25 -4.78,-11.76 -2.48,-35.87 11.45,-44.01l64.44 -1.13c-1.47,13.04 -10.11,26.92 -4.66,39.85zm-837.22 -155.35c35.35,-6.34 18.64,51.6 -63.81,26.81 -25.51,-7.67 -19.13,-0.83 -37.21,5.65 -29.86,10.69 -27.16,-27.44 16.94,-31.98 17.06,-1.76 29.75,1.2 45.56,4.64 23.92,5.19 19.06,-1.62 38.52,-5.12zm-112.66 -5.19c1.08,-6.52 78.58,-90.69 89.31,-98.82 10.14,-7.68 27.96,-10.33 42.22,-8.7 15.14,1.73 16.33,17.46 19,26.97 5.37,19.06 13.97,55.78 12.48,74.41 -11.18,5.3 -30.84,5.46 -42.77,1.47 -3.65,-4.39 -2.89,-9.65 -3.91,-15.71l-55.39 1.25c-12.58,22.88 -29.6,21.59 -60.94,19.13zm854.83 -24.15c4.67,-11.9 45.78,-50.75 57.87,-63.7 25.78,-27.62 29.61,-48.3 85.93,-39.67 5.32,16.32 7.9,33.73 11.78,50.43 1.52,6.56 11.55,41.94 9.56,48.24l-43.7 3.83 -7.7 -16.61 -51.7 0.02c-5.98,8.05 -9.28,15.16 -22.44,18.66 -11.48,3.05 -29.71,2.74 -39.6,-1.2zm-513.89 15.05c0.15,-8.07 26.51,-86.8 31.2,-94.63 8.84,-14.74 45.32,-10.61 63.67,-10.74 21.94,-0.16 44.93,0.35 61.17,12.56 15.8,11.89 13.75,31.35 7.99,46.3 -17.93,46.52 -137.84,57.71 -164.03,46.51zm303.36 -7.55c2.48,-23.35 18.42,-51.16 26.57,-74.32 4.03,-11.45 2.71,-27.64 20.77,-30.63 26.49,-4.4 139.98,-9.15 103.9,47.57 -11.95,18.78 -22.29,14.63 -31.14,22.86 -9.82,9.14 11.36,17.72 12.07,31.21l-47.06 0.22c-9.01,-11.06 -9.58,-24.07 -27.95,-23.4 -4.07,7.97 -6.08,18.5 -12.52,25.49l-44.64 1zm-952.39 19.08c13.68,-3.61 72.97,-81.15 93.59,-95.56 9.16,-6.4 34.62,-10.25 45.85,-5.26 7.5,3.34 11.71,24.68 13.45,31.63l7.72 35.59c1.76,9.11 6.44,27.77 5.16,36.43l-46.16 -1.29 -4.81 -14.63c-34.14,-3.47 -48.72,-4.39 -67.51,17.5 -37.74,3.04 -125.16,5.91 -162.24,2.81l37.86 -102.64 47.88 -0.82 -26.11 76.64 60.93 -0.15 -5.61 19.75zm252.72 -47.78c11.7,-6.28 30.17,-28.63 38.46,-38.92 17.35,-21.55 28.42,-22.05 62.8,-19.37 -5.61,11.18 -72.8,85.52 -86.81,97.78 -11.18,9.8 -39.84,14.61 -55.03,6.96l-20.76 -100.12c13,-2.03 33.2,-1.89 46.49,-1.14 9.97,11.94 7.72,44.84 14.85,54.81zm409.1 -65.93l-39.29 103.59 -40.2 -0.21 -32.86 -41 -22.23 43.02 -44.43 0.4 40.03 -102.74 37.37 -0.8c11.92,8.23 22.9,36.93 35.7,40.08 12.55,-5.55 13.4,-31.04 19.35,-42.18l46.56 -0.16zm153.42 99.13c3.08,-26.16 23.32,-60.77 31.5,-88.03 7.25,-24.14 19.11,-17.36 48.97,-18.65 24.59,-1.05 46.41,-1.77 71.16,-0.72 0.33,5.19 -5.1,18.89 -8.26,23.85 -31.6,6.99 -67.38,-5.79 -70.52,14.08l57.3 1.36c-6.17,14.98 -6.92,26.15 -29.78,26.49 -15.43,0.23 -43.72,-5.75 -41.6,13l67.09 0.13c-2.02,7.47 -7.09,20.85 -12.49,26.21l-113.37 2.28zm326.35 -113.83l46.99 0.28c-1,7.84 -37.66,99.6 -41.6,104.29l-44.36 0.23 38.97 -104.8zm7.4 -8.91c2.9,-15.69 35.12,-17.8 52.26,-12.14 -1.18,16.32 -38.54,18.2 -52.26,12.14zm-915.69 6.42c0.67,-0.79 -1.12,0.26 2.47,-1.52l19.31 -7.75c39.45,-15.29 136.43,-40.74 174.95,-47.99 192.96,-36.28 295.55,-45.25 490.31,-28.44 43.93,3.8 69.61,9.1 110.95,20.02 20.59,5.44 81.21,21.02 94.29,31.71 -112.33,20.15 -112.36,11.52 -215.96,12.78 -47.82,0.59 -33.01,7.89 -50.35,4.75 -25.42,-4.61 -26.72,-2.54 -51.56,-0.91 -39.3,2.57 -78.6,-0.43 -117.78,0.5 -26.42,0.63 -26.97,4.7 -48.33,8.6 -33.86,6.17 -80.63,-2.06 -114.86,3.48 -10.95,1.77 -34.09,11.23 -42.71,9 -6.58,-1.7 -11.31,-6.12 -19.56,-7.84 -7.89,-1.64 -73.79,0.6 -85.86,0.86 -18.75,0.41 -37.13,2.15 -56.01,2.44 -40.19,0.6 -21.45,5.55 -41.96,11.37 -10.38,-1.94 -9.2,-6.35 -20.25,-8.59 -10.43,-2.1 -17.13,0.3 -27.09,-2.47zm-243.34 84.9c-10.29,-25.5 61.74,-76.13 -34.74,-75.26 -66.14,0.6 -68,20.27 -80.03,63.71 -4.25,15.35 -8.55,34.73 -18.19,48.59 -14.51,20.88 -33.32,14.35 -40.93,30.4 -14.09,29.69 -23.23,66.64 -34.06,97.67 -4.97,14.22 -45.48,117.52 -28.53,126.88 20.86,11.52 84.05,9.25 108.74,6.99 82.12,-7.52 51.8,0.02 107.13,35.89 28.23,18.3 67.99,35.36 101.84,47.38 165.18,58.68 401.61,56.04 578.17,30.7 82.67,-11.87 179.47,-29.84 256.05,-55.9 35.96,-12.24 77.06,-25.52 110.18,-41.23 47.15,-22.36 111.95,0.87 142.76,-16.92 22.07,-12.75 16.56,-23.09 53.97,-19.5 32.13,3.08 46.09,5.08 78.58,-0.92 42.4,-7.82 70.9,-26.27 92.27,-54.27 12.35,-16.17 13,-35.62 12.31,-53.73 -0.92,-24.11 -1.71,-28.27 15.33,-48.62 18.93,-22.61 19.82,-77.86 -4.95,-98.59 -14.79,-12.37 -37.13,-9.32 -45.98,-28.1 -12.16,-25.81 -7.57,-86.47 -30.3,-100.43 -20.97,-12.88 -45.56,-4.74 -68.85,-2.85 -29.38,2.39 -27.97,-13.86 -54.68,-16.74 -29.38,-3.17 -38.81,3.77 -67.51,-10.49 -28.31,-14.06 -81.28,-30.97 -114.13,-38.35 -116.32,-26.13 -333.47,-26.93 -455.03,-10.24 -46.96,6.45 -89.47,13.8 -135.69,22.32 -58.86,10.85 -189,45.15 -238.94,68.66 -28.12,13.24 -31.38,13.79 -65.66,13.12 -25.58,-0.51 -43.69,0.31 -61.1,15.73 -18.36,16.27 -45.45,67.01 -78.03,64.1zm882.05 209.39c20.78,1.04 21.26,-10.71 26.94,-22.99 5.55,-11.99 6.5,-23.07 10.61,-35.03 6.51,-18.91 23.65,-52.68 15.97,-71.1 -18.58,-1.65 -18.65,13.86 -21.78,25.36 -7.3,26.77 -31.33,74.62 -31.74,103.76zm-163.89 -203.54c16.46,0.87 38.3,-0.91 49.91,-9.82 10.53,-8.09 17.51,-27.4 2.7,-34.87 -47.18,-23.82 -53.3,39.77 -52.61,44.69zm-217.63 223.93c20.65,0.45 18.66,-7.36 22.92,-19.87 5.6,-16.41 31.64,-84.33 22.47,-91.05 -14.51,-10.65 -27.77,43.75 -29.52,48.93 -6.49,19.16 -18.75,42.02 -15.87,61.99zm530.02 -256.89c18.25,1.36 56.71,-5.87 34.81,-21.32 -22.85,-16.12 -35.24,7.28 -34.81,21.32zm-931.32 33.27l20.69 -0.22c2.88,-7.42 2.18,-14.6 -2.91,-20.37 -9.56,4.2 -16.03,12.23 -17.78,20.59zm1162.56 -31.47l20.87 0.52c1.59,-7.8 2.4,-14.67 -3.6,-20.72 -8.43,3.29 -15.96,12.87 -17.27,20.2z"/>
  </g>
 </g>
</svg>
